<?xml version="1.0" encoding="UTF-8" standalone="no"?>
<!DOCTYPE svg PUBLIC "-//W3C//DTD SVG 1.1//EN"
 "http://www.w3.org/Graphics/SVG/1.1/DTD/svg11.dtd">
<!-- Generated by graphviz version 2.40.1 (20161225.0304)
 -->
<!-- Title: %3 Pages: 1 -->
<svg width="1196pt" height="169pt"
 viewBox="0.00 0.00 2196.00 269.00" xmlns="http://www.w3.org/2000/svg" xmlns:xlink="http://www.w3.org/1999/xlink">
<g id="graph0" class="graph" transform="scale(1 1) rotate(0) translate(4 265)">
<title>%3</title>
<polygon fill="#ffffff" stroke="transparent" points="-4,4 -4,-265 2192,-265 2192,4 -4,4"/>
<g id="clust1" class="cluster">
<title>cluster_Client</title>
<path fill="none" stroke="#000000" d="M20,-8C20,-8 2168,-8 2168,-8 2174,-8 2180,-14 2180,-20 2180,-20 2180,-241 2180,-241 2180,-247 2174,-253 2168,-253 2168,-253 20,-253 20,-253 14,-253 8,-247 8,-241 8,-241 8,-20 8,-20 8,-14 14,-8 20,-8"/>
<text text-anchor="start" x="1069.5" y="-237.8" font-family="Sans Bold Italic" font-size="14.00" fill="#000000">Client</text>
</g>
<!-- INITIAL -->
<g id="node1" class="node">
<title>INITIAL</title>
<ellipse fill="#000000" stroke="#000000" cx="23" cy="-136" rx="7" ry="7"/>
</g>
<!-- Splash -->
<g id="node2" class="node">
<title>Splash</title>
<g id="a_node2"><a xlink:href="./splash.png" xlink:title="&lt;FONT COLOR=&quot;blue&quot;&gt;&lt;B&gt;Splash&lt;/B&gt;&lt;/FONT&gt;|&lt;FONT FACE=&quot;Mono&quot;&gt;&lt;BR/&gt;&#10;session : ::Session&amp;lt;splash::Splash&amp;gt;&lt;BR ALIGN=&quot;LEFT&quot;/&gt;&lt;/FONT&gt;">
<path fill="none" stroke="#000000" d="M117,-104.6C117,-104.6 398,-104.6 398,-104.6 404,-104.6 410,-110.6 410,-116.6 410,-116.6 410,-155.4 410,-155.4 410,-161.4 404,-167.4 398,-167.4 398,-167.4 117,-167.4 117,-167.4 111,-167.4 105,-161.4 105,-155.4 105,-155.4 105,-116.6 105,-116.6 105,-110.6 111,-104.6 117,-104.6"/>
<text text-anchor="start" x="230" y="-153.2" font-family="Sans Bold" font-weight="bold" font-size="14.00" fill="#0000ff">Splash</text>
<polyline fill="none" stroke="#000000" points="105,-144.4 410,-144.4 "/>
<text text-anchor="start" x="113" y="-114.2" font-family="Mono" font-size="14.00" fill="#000000">session : ::Session&lt;splash::Splash&gt;</text>
</a>
</g>
</g>
<!-- INITIAL&#45;&gt;Splash -->
<g id="edge1" class="edge">
<title>INITIAL&#45;&gt;Splash</title>
<path fill="none" stroke="#000000" d="M30.0181,-136C41.4706,-136 65.7983,-136 94.4563,-136"/>
<polygon fill="#000000" stroke="#000000" points="94.7595,-139.5001 104.7595,-136 94.7595,-132.5001 94.7595,-139.5001"/>
</g>
<!-- TitleMenu -->
<g id="node3" class="node">
<title>TitleMenu</title>
<g id="a_node3"><a xlink:href="./title_menu.png" xlink:title="&lt;FONT COLOR=&quot;blue&quot;&gt;&lt;B&gt;TitleMenu&lt;/B&gt;&lt;/FONT&gt;|&lt;FONT FACE=&quot;Mono&quot;&gt;&lt;BR/&gt;&#10;session : ::Session&amp;lt;title_menu::TitleMenu&amp;gt;&lt;BR ALIGN=&quot;LEFT&quot;/&gt;&lt;/FONT&gt;">
<path fill="none" stroke="#000000" d="M630,-104.6C630,-104.6 969,-104.6 969,-104.6 975,-104.6 981,-110.6 981,-116.6 981,-116.6 981,-155.4 981,-155.4 981,-161.4 975,-167.4 969,-167.4 969,-167.4 630,-167.4 630,-167.4 624,-167.4 618,-161.4 618,-155.4 618,-155.4 618,-116.6 618,-116.6 618,-110.6 624,-104.6 630,-104.6"/>
<text text-anchor="start" x="758.5" y="-153.2" font-family="Sans Bold" font-weight="bold" font-size="14.00" fill="#0000ff">TitleMenu</text>
<polyline fill="none" stroke="#000000" points="618,-144.4 981,-144.4 "/>
<text text-anchor="start" x="626" y="-114.2" font-family="Mono" font-size="14.00" fill="#000000">session : ::Session&lt;title_menu::TitleMenu&gt;</text>
</a>
</g>
</g>
<!-- Splash&#45;&gt;TitleMenu -->
<g id="edge2" class="edge">
<title>Splash&#45;&gt;TitleMenu</title>
<path fill="none" stroke="#000000" d="M410.2808,-136C471.4986,-136 542.7271,-136 607.3908,-136"/>
<polygon fill="#000000" stroke="#000000" points="607.7101,-139.5001 617.7101,-136 607.71,-132.5001 607.7101,-139.5001"/>
<text text-anchor="start" x="447" y="-139.8" font-family="Sans Italic" font-size="14.00" fill="#000000">SplashToTitleMenu</text>
</g>
<!-- Practice -->
<g id="node4" class="node">
<title>Practice</title>
<g id="a_node4"><a xlink:href="./practice.png" xlink:title="&lt;FONT COLOR=&quot;blue&quot;&gt;&lt;B&gt;Practice&lt;/B&gt;&lt;/FONT&gt;|&lt;FONT FACE=&quot;Mono&quot;&gt;&lt;BR/&gt;&#10;session : ::Session&amp;lt;practice::Practice&amp;gt;&lt;BR ALIGN=&quot;LEFT&quot;/&gt;&lt;/FONT&gt;">
<path fill="none" stroke="#000000" d="M1250,-21.6C1250,-21.6 1564,-21.6 1564,-21.6 1570,-21.6 1576,-27.6 1576,-33.6 1576,-33.6 1576,-72.4 1576,-72.4 1576,-78.4 1570,-84.4 1564,-84.4 1564,-84.4 1250,-84.4 1250,-84.4 1244,-84.4 1238,-78.4 1238,-72.4 1238,-72.4 1238,-33.6 1238,-33.6 1238,-27.6 1244,-21.6 1250,-21.6"/>
<text text-anchor="start" x="1374" y="-70.2" font-family="Sans Bold" font-weight="bold" font-size="14.00" fill="#0000ff">Practice</text>
<polyline fill="none" stroke="#000000" points="1238,-61.4 1576,-61.4 "/>
<text text-anchor="start" x="1246" y="-31.2" font-family="Mono" font-size="14.00" fill="#000000">session : ::Session&lt;practice::Practice&gt;</text>
</a>
</g>
</g>
<!-- TitleMenu&#45;&gt;Practice -->
<g id="edge3" class="edge">
<title>TitleMenu&#45;&gt;Practice</title>
<path fill="none" stroke="#000000" d="M859.732,-104.4353C902.5731,-83.8299 962.1944,-58.8156 1018,-48 1085.6414,-34.8905 1161.1447,-33.0229 1227.5032,-35.5195"/>
<polygon fill="#000000" stroke="#000000" points="1227.5124,-39.0227 1237.6481,-35.9375 1227.8007,-32.0287 1227.5124,-39.0227"/>
<text text-anchor="start" x="1027.5" y="-51.8" font-family="Sans Italic" font-size="14.00" fill="#000000">TitleMenuToPractice</text>
</g>
<!-- MultiSetup -->
<g id="node5" class="node">
<title>MultiSetup</title>
<g id="a_node5"><a xlink:href="./multi_setup.png" xlink:title="&lt;FONT COLOR=&quot;blue&quot;&gt;&lt;B&gt;MultiSetup&lt;/B&gt;&lt;/FONT&gt;|&lt;FONT FACE=&quot;Mono&quot;&gt;&lt;BR/&gt;&#10;session : ::Session&amp;lt;multi_setup::MultiSetup&amp;gt;&lt;BR ALIGN=&quot;LEFT&quot;/&gt;&lt;/FONT&gt;">
<path fill="none" stroke="#000000" d="M1229,-107.6C1229,-107.6 1585,-107.6 1585,-107.6 1591,-107.6 1597,-113.6 1597,-119.6 1597,-119.6 1597,-158.4 1597,-158.4 1597,-164.4 1591,-170.4 1585,-170.4 1585,-170.4 1229,-170.4 1229,-170.4 1223,-170.4 1217,-164.4 1217,-158.4 1217,-158.4 1217,-119.6 1217,-119.6 1217,-113.6 1223,-107.6 1229,-107.6"/>
<text text-anchor="start" x="1361.5" y="-156.2" font-family="Sans Bold" font-weight="bold" font-size="14.00" fill="#0000ff">MultiSetup</text>
<polyline fill="none" stroke="#000000" points="1217,-147.4 1597,-147.4 "/>
<text text-anchor="start" x="1225" y="-117.2" font-family="Mono" font-size="14.00" fill="#000000">session : ::Session&lt;multi_setup::MultiSetup&gt;</text>
</a>
</g>
</g>
<!-- TitleMenu&#45;&gt;MultiSetup -->
<g id="edge5" class="edge">
<title>TitleMenu&#45;&gt;MultiSetup</title>
<path fill="none" stroke="#000000" d="M981.243,-153.008C993.6747,-153.8003 1006.017,-154.48 1018,-155 1089.9323,-158.1216 1108.0446,-157.5327 1180,-155 1188.7495,-154.692 1197.6852,-154.3175 1206.7093,-153.8902"/>
<polygon fill="#000000" stroke="#000000" points="1207.1147,-157.3746 1216.9301,-153.3861 1206.7698,-150.3831 1207.1147,-157.3746"/>
<text text-anchor="start" x="1018" y="-160.8" font-family="Sans Italic" font-size="14.00" fill="#000000">TitleMenuToMultiSetup</text>
</g>
<!-- Practice&#45;&gt;TitleMenu -->
<g id="edge4" class="edge">
<title>Practice&#45;&gt;TitleMenu</title>
<path fill="none" stroke="#000000" d="M1237.8741,-76.1069C1161.3416,-86.5632 1070.5149,-98.9725 991.4382,-109.7763"/>
<polygon fill="#000000" stroke="#000000" points="990.7926,-106.3319 981.3585,-111.1535 991.7402,-113.2675 990.7926,-106.3319"/>
<text text-anchor="start" x="1027.5" y="-109.8" font-family="Sans Italic" font-size="14.00" fill="#000000">PracticeToTitleMenu</text>
</g>
<!-- MultiSetup&#45;&gt;TitleMenu -->
<g id="edge6" class="edge">
<title>MultiSetup&#45;&gt;TitleMenu</title>
<path fill="none" stroke="#000000" d="M1216.8799,-136.3025C1204.3993,-136.1825 1192.0208,-136.0794 1180,-136 1118.6774,-135.5948 1051.7944,-135.4835 991.4475,-135.5062"/>
<polygon fill="#000000" stroke="#000000" points="991.43,-132.0061 981.4318,-135.5112 991.4336,-139.0061 991.43,-132.0061"/>
<text text-anchor="start" x="1018" y="-139.8" font-family="Sans Italic" font-size="14.00" fill="#000000">MultiSetupToTitleMenu</text>
</g>
<!-- MultiRun -->
<g id="node6" class="node">
<title>MultiRun</title>
<g id="a_node6"><a xlink:href="./multi_run.png" xlink:title="&lt;FONT COLOR=&quot;blue&quot;&gt;&lt;B&gt;MultiRun&lt;/B&gt;&lt;/FONT&gt;|&lt;FONT FACE=&quot;Mono&quot;&gt;&lt;BR/&gt;&#10;session : ::Session&amp;lt;multi_run::MultiRun&amp;gt;&lt;BR ALIGN=&quot;LEFT&quot;/&gt;&lt;/FONT&gt;">
<path fill="none" stroke="#000000" d="M1837,-133.6C1837,-133.6 2160,-133.6 2160,-133.6 2166,-133.6 2172,-139.6 2172,-145.6 2172,-145.6 2172,-184.4 2172,-184.4 2172,-190.4 2166,-196.4 2160,-196.4 2160,-196.4 1837,-196.4 1837,-196.4 1831,-196.4 1825,-190.4 1825,-184.4 1825,-184.4 1825,-145.6 1825,-145.6 1825,-139.6 1831,-133.6 1837,-133.6"/>
<text text-anchor="start" x="1961" y="-182.2" font-family="Sans Bold" font-weight="bold" font-size="14.00" fill="#0000ff">MultiRun</text>
<polyline fill="none" stroke="#000000" points="1825,-173.4 2172,-173.4 "/>
<text text-anchor="start" x="1833" y="-143.2" font-family="Mono" font-size="14.00" fill="#000000">session : ::Session&lt;multi_run::MultiRun&gt;</text>
</a>
</g>
</g>
<!-- MultiSetup&#45;&gt;MultiRun -->
<g id="edge7" class="edge">
<title>MultiSetup&#45;&gt;MultiRun</title>
<path fill="none" stroke="#000000" d="M1597.0025,-147.3518C1666.7119,-150.4159 1745.4479,-153.8768 1814.6114,-156.917"/>
<polygon fill="#000000" stroke="#000000" points="1814.6001,-160.4198 1824.7442,-157.3624 1814.9076,-153.4265 1814.6001,-160.4198"/>
<text text-anchor="start" x="1634" y="-158.8" font-family="Sans Italic" font-size="14.00" fill="#000000">MultiSetupToMultiRun</text>
</g>
<!-- MultiRun&#45;&gt;TitleMenu -->
<g id="edge8" class="edge">
<title>MultiRun&#45;&gt;TitleMenu</title>
<path fill="none" stroke="#000000" d="M1824.8468,-178.6153C1628.4608,-191.3064 1299.376,-204.3965 1018,-176 1000.356,-174.2194 982.0006,-171.7878 963.7587,-168.9966"/>
<polygon fill="#000000" stroke="#000000" points="964.0626,-165.5016 953.6412,-167.4108 962.9786,-172.4172 964.0626,-165.5016"/>
<text text-anchor="start" x="1333" y="-195.8" font-family="Sans Italic" font-size="14.00" fill="#000000">MultiRunToTitleMenu</text>
</g>
</g>
</svg>
