<?xml version="1.0" encoding="UTF-8" standalone="no"?>
<!DOCTYPE svg PUBLIC "-//W3C//DTD SVG 1.1//EN"
 "http://www.w3.org/Graphics/SVG/1.1/DTD/svg11.dtd">
<!-- Generated by graphviz version 2.40.1 (20161225.0304)
 -->
<!-- Title: %3 Pages: 1 -->
<svg width="1222pt" height="277pt"
 viewBox="0.00 0.00 2622.22 377.00" xmlns="http://www.w3.org/2000/svg" xmlns:xlink="http://www.w3.org/1999/xlink">
<g id="graph0" class="graph" transform="scale(1 1) rotate(0) translate(4 373)">
<title>%3</title>
<polygon fill="#ffffff" stroke="transparent" points="-4,4 -4,-373 2618.2183,-373 2618.2183,4 -4,4"/>
<g id="clust1" class="cluster">
<title>cluster_MultiRun</title>
<path fill="none" stroke="#000000" d="M20,-8C20,-8 2594.2183,-8 2594.2183,-8 2600.2183,-8 2606.2183,-14 2606.2183,-20 2606.2183,-20 2606.2183,-349 2606.2183,-349 2606.2183,-355 2600.2183,-361 2594.2183,-361 2594.2183,-361 20,-361 20,-361 14,-361 8,-355 8,-349 8,-349 8,-20 8,-20 8,-14 14,-8 20,-8"/>
<text text-anchor="start" x="1270.1092" y="-345.8" font-family="Sans Bold Italic" font-size="14.00" fill="#000000">MultiRun</text>
</g>
<!-- MainThread -->
<g id="node1" class="node">
<title>MainThread</title>
<polygon fill="none" stroke="#000000" points="608.6648,-173 460.5265,-307.9442 164.25,-307.9442 16.1117,-173 164.25,-38.0558 460.5265,-38.0558 608.6648,-173"/>
<text text-anchor="start" x="264.3883" y="-236.8" font-family="Sans Bold" font-weight="bold" font-size="14.00" fill="#000000">MainThread</text>
<text text-anchor="start" x="143.3883" y="-199.8" font-family="Mono" font-size="14.00" fill="#000000">main_context &#160;&#160;&#160;&#160;&#160;: Option&lt;thread::Main&gt;,</text>
<text text-anchor="start" x="143.3883" y="-184.8" font-family="Mono" font-size="14.00" fill="#000000">client_id &#160;&#160;&#160;&#160;&#160;&#160;&#160;&#160;: server::ClientId,</text>
<text text-anchor="start" x="143.3883" y="-169.8" font-family="Mono" font-size="14.00" fill="#000000">lock_mouselook &#160;&#160;&#160;: bool,</text>
<text text-anchor="start" x="143.3883" y="-154.8" font-family="Mono" font-size="14.00" fill="#000000">input_map_keydown : VecMap&lt;InputFun&gt;,</text>
<text text-anchor="start" x="143.3883" y="-139.8" font-family="Mono" font-size="14.00" fill="#000000">input_map_keyup &#160;&#160;: VecMap&lt;InputFun&gt;</text>
<text text-anchor="start" x="242.3883" y="-102.8" font-family="Mono" font-size="14.00" fill="#000000">&#45;&gt; MultiRunResult</text>
</g>
<!-- AvThread -->
<g id="node2" class="node">
<title>AvThread</title>
<polygon fill="none" stroke="#000000" points="2598.083,-96 2433.2184,-176.0333 2103.4891,-176.0333 1938.6244,-96 2103.4891,-15.9667 2433.2184,-15.9667 2598.083,-96"/>
<text text-anchor="start" x="2229.8537" y="-126.8" font-family="Sans Bold" font-weight="bold" font-size="14.00" fill="#000000">AvThread</text>
<text text-anchor="start" x="2078.3537" y="-89.8" font-family="Mono" font-size="14.00" fill="#000000">av_context &#160;&#160;&#160;&#160;&#160;&#160;&#160;&#160;&#160;: Option&lt;Box&lt;thread::Av&gt;&gt;,</text>
<text text-anchor="start" x="2078.3537" y="-74.8" font-family="Mono" font-size="14.00" fill="#000000">rfmod_channel_music : Option&lt;rfmod::Channel&gt;,</text>
<text text-anchor="start" x="2078.3537" y="-59.8" font-family="Mono" font-size="14.00" fill="#000000">frame &#160;&#160;&#160;&#160;&#160;&#160;&#160;&#160;&#160;&#160;&#160;&#160;&#160;&#160;: u64</text>
</g>
<!-- MainThread&#45;&gt;AvThread -->
<g id="edge1" class="edge">
<title>MainThread&#45;&gt;AvThread</title>
<path fill="none" stroke="#000000" stroke-dasharray="5,2" d="M515.8002,-88.0395C602.1181,-59.1415 704.7957,-34 800.7765,-34 800.7765,-34 800.7765,-34 1755.4891,-34 1840.057,-34 1931.9055,-42.4113 2014.1984,-53.0376"/>
<polygon fill="#000000" stroke="#000000" points="2024.1856,-54.344 2013.6863,-57.5089 2019.2278,-53.6955 2014.2701,-53.0469 2014.2701,-53.0469 2014.2701,-53.0469 2019.2278,-53.6955 2014.8538,-48.5849 2024.1856,-54.344 2024.1856,-54.344"/>
<text text-anchor="start" x="1185.6328" y="-37.8" font-family="Sans Italic" font-size="14.00" fill="#000000">MainToAv &lt;MainToAvMsg&gt;</text>
</g>
<!-- SimulationThread -->
<g id="node3" class="node">
<title>SimulationThread</title>
<polygon fill="none" stroke="#000000" points="1572.3454,-147 1427.4891,-227.0333 1137.7765,-227.0333 992.9202,-147 1137.7765,-66.9667 1427.4891,-66.9667 1572.3454,-147"/>
<text text-anchor="start" x="1210.1328" y="-177.8" font-family="Sans Bold" font-weight="bold" font-size="14.00" fill="#000000">SimulationThread</text>
<text text-anchor="start" x="1117.6328" y="-140.8" font-family="Mono" font-size="14.00" fill="#000000">simulation_context : Option&lt;Simulation&gt;,</text>
<text text-anchor="start" x="1117.6328" y="-125.8" font-family="Mono" font-size="14.00" fill="#000000">client_id &#160;&#160;&#160;&#160;&#160;&#160;&#160;&#160;&#160;: server::ClientId,</text>
<text text-anchor="start" x="1117.6328" y="-110.8" font-family="Mono" font-size="14.00" fill="#000000">quit &#160;&#160;&#160;&#160;&#160;&#160;&#160;&#160;&#160;&#160;&#160;&#160;&#160;&#160;: bool</text>
</g>
<!-- MainThread&#45;&gt;SimulationThread -->
<g id="edge2" class="edge">
<title>MainThread&#45;&gt;SimulationThread</title>
<path fill="none" stroke="#000000" stroke-dasharray="5,2" d="M600.2109,-165.2871C725.1867,-161.9381 871.22,-158.0248 996.0553,-154.6795"/>
<polygon fill="#000000" stroke="#000000" points="1006.1499,-154.409 996.2741,-159.1754 1001.1517,-154.543 996.1535,-154.677 996.1535,-154.677 996.1535,-154.677 1001.1517,-154.543 996.0329,-150.1786 1006.1499,-154.409 1006.1499,-154.409"/>
<text text-anchor="start" x="645.7765" y="-167.8" font-family="Sans Italic" font-size="14.00" fill="#000000">MainToSimulation &lt;MainToSimulationMsg&gt;</text>
</g>
<!-- NetThread -->
<g id="node4" class="node">
<title>NetThread</title>
<polygon fill="none" stroke="#000000" points="2517.4166,-262 2392.8852,-329.5392 2143.8222,-329.5392 2019.2908,-262 2143.8222,-194.4608 2392.8852,-194.4608 2517.4166,-262"/>
<text text-anchor="start" x="2225.8537" y="-284.8" font-family="Sans Bold" font-weight="bold" font-size="14.00" fill="#000000">NetThread</text>
<text text-anchor="start" x="2128.3537" y="-247.8" font-family="Mono" font-size="14.00" fill="#000000">net_context : Option&lt;thread::Net&gt;,</text>
<text text-anchor="start" x="2128.3537" y="-232.8" font-family="Mono" font-size="14.00" fill="#000000">main_quit &#160;&#160;: bool</text>
</g>
<!-- MainThread&#45;&gt;NetThread -->
<g id="edge3" class="edge">
<title>MainThread&#45;&gt;NetThread</title>
<path fill="none" stroke="#000000" stroke-dasharray="5,2" d="M542.7638,-233.2188C623.7437,-249.6421 715.7447,-263 800.7765,-263 800.7765,-263 800.7765,-263 1755.4891,-263 1838.3146,-263 1928.664,-262.868 2010.1337,-262.6999"/>
<polygon fill="#000000" stroke="#000000" points="2020.537,-262.6781 2010.5465,-267.1991 2015.537,-262.6886 2010.537,-262.6991 2010.537,-262.6991 2010.537,-262.6991 2015.537,-262.6886 2010.5276,-258.1991 2020.537,-262.6781 2020.537,-262.6781"/>
<text text-anchor="start" x="1178.6328" y="-266.8" font-family="Sans Italic" font-size="14.00" fill="#000000">MainToNet &lt;MainToNetMsg&gt;</text>
</g>
<!-- SimulationThread&#45;&gt;AvThread -->
<g id="edge4" class="edge">
<title>SimulationThread&#45;&gt;AvThread</title>
<path fill="none" stroke="#000000" stroke-dasharray="5,2" d="M1530.1481,-123.5896C1556.9121,-121.4908 1583.7586,-119.5698 1609.4891,-118 1717.805,-111.3916 1836.2679,-106.6604 1942.5026,-103.3225"/>
<polygon fill="#000000" stroke="#000000" points="1952.7444,-103.0038 1942.8893,-107.8127 1947.7469,-103.1593 1942.7493,-103.3149 1942.7493,-103.3149 1942.7493,-103.3149 1947.7469,-103.1593 1942.6093,-98.8171 1952.7444,-103.0038 1952.7444,-103.0038"/>
<text text-anchor="start" x="1616.4891" y="-121.8" font-family="Sans Italic" font-size="14.00" fill="#000000">SimulationToAv &lt;SimulationToAvMsg&gt;</text>
</g>
<!-- SimulationThread&#45;&gt;NetThread -->
<g id="edge5" class="edge">
<title>SimulationThread&#45;&gt;NetThread</title>
<path fill="none" stroke="#000000" stroke-dasharray="5,2" d="M1558.8265,-154.6596C1666.1523,-159.9481 1789.8975,-168.8879 1901.4891,-184 1962.1817,-192.2192 2027.8003,-204.9283 2086.5318,-217.7184"/>
<polygon fill="#000000" stroke="#000000" points="2096.6534,-219.9381 2085.9215,-222.1914 2091.7695,-218.867 2086.8855,-217.7959 2086.8855,-217.7959 2086.8855,-217.7959 2091.7695,-218.867 2087.8495,-213.4003 2096.6534,-219.9381 2096.6534,-219.9381"/>
<text text-anchor="start" x="1609.4891" y="-187.8" font-family="Sans Italic" font-size="14.00" fill="#000000">SimulationToNet &lt;SimulationToNetMsg&gt;</text>
</g>
<!-- NetThread&#45;&gt;MainThread -->
<g id="edge6" class="edge">
<title>NetThread&#45;&gt;MainThread</title>
<path fill="none" stroke="#000000" stroke-dasharray="5,2" d="M2072.7769,-291.192C1977.3159,-303.0453 1860.6463,-314 1755.4891,-314 800.7765,-314 800.7765,-314 800.7765,-314 707.8323,-314 608.7048,-290.1368 524.2116,-262.0446"/>
<polygon fill="#000000" stroke="#000000" points="514.509,-258.7789 525.4221,-257.704 519.2478,-260.3739 523.9866,-261.9689 523.9866,-261.9689 523.9866,-261.9689 519.2478,-260.3739 522.5511,-266.2338 514.509,-258.7789 514.509,-258.7789"/>
<text text-anchor="start" x="1178.6328" y="-317.8" font-family="Sans Italic" font-size="14.00" fill="#000000">NetToMain &lt;NetToMainMsg&gt;</text>
</g>
<!-- NetThread&#45;&gt;SimulationThread -->
<g id="edge7" class="edge">
<title>NetThread&#45;&gt;SimulationThread</title>
<path fill="none" stroke="#000000" stroke-dasharray="5,2" d="M2050.9757,-244.6498C1922.3641,-233.5287 1756.3925,-217.6904 1609.4891,-199 1579.0147,-195.1228 1547.013,-190.597 1515.4512,-185.8627"/>
<polygon fill="#000000" stroke="#000000" points="1505.2218,-184.3188 1515.7814,-181.3616 1510.1658,-185.065 1515.1098,-185.8112 1515.1098,-185.8112 1515.1098,-185.8112 1510.1658,-185.065 1514.4382,-190.2608 1505.2218,-184.3188 1505.2218,-184.3188"/>
<text text-anchor="start" x="1609.4891" y="-233.8" font-family="Sans Italic" font-size="14.00" fill="#000000">NetToSimulation &lt;NetToSimulationMsg&gt;</text>
</g>
</g>
</svg>
