<?xml version="1.0" encoding="UTF-8" standalone="no"?>
<!DOCTYPE svg PUBLIC "-//W3C//DTD SVG 1.1//EN"
 "http://www.w3.org/Graphics/SVG/1.1/DTD/svg11.dtd">
<!-- Generated by graphviz version 2.40.1 (20161225.0304)
 -->
<!-- Title: %3 Pages: 1 -->
<svg width="835pt" height="275pt"
 viewBox="0.00 0.00 1535.31 475.00" xmlns="http://www.w3.org/2000/svg" xmlns:xlink="http://www.w3.org/1999/xlink">
<g id="graph0" class="graph" transform="scale(1 1) rotate(0) translate(4 471)">
<title>%3</title>
<polygon fill="#ffffff" stroke="transparent" points="-4,4 -4,-471 1531.3139,-471 1531.3139,4 -4,4"/>
<g id="clust1" class="cluster">
<title>cluster_MultiSetup</title>
<path fill="none" stroke="#000000" d="M20,-8C20,-8 1507.3139,-8 1507.3139,-8 1513.3139,-8 1519.3139,-14 1519.3139,-20 1519.3139,-20 1519.3139,-447 1519.3139,-447 1519.3139,-453 1513.3139,-459 1507.3139,-459 1507.3139,-459 20,-459 20,-459 14,-459 8,-453 8,-447 8,-447 8,-20 8,-20 8,-14 14,-8 20,-8"/>
<text text-anchor="start" x="718.157" y="-443.8" font-family="Sans Bold Italic" font-size="14.00" fill="#000000">MultiSetup</text>
</g>
<!-- MainThread -->
<g id="node1" class="node">
<title>MainThread</title>
<polygon fill="none" stroke="#000000" points="541.7357,-309 410.3238,-419.4545 147.5,-419.4545 16.0881,-309 147.5,-198.5455 410.3238,-198.5455 541.7357,-309"/>
<text text-anchor="start" x="230.4119" y="-357.8" font-family="Sans Bold" font-weight="bold" font-size="14.00" fill="#000000">MainThread</text>
<text text-anchor="start" x="129.9119" y="-320.8" font-family="Mono" font-size="14.00" fill="#000000">main_context : Option&lt;thread::Main&gt;,</text>
<text text-anchor="start" x="129.9119" y="-305.8" font-family="Mono" font-size="14.00" fill="#000000">input_map &#160;&#160;&#160;: VecMap&lt;InputFun&gt;,</text>
<text text-anchor="start" x="129.9119" y="-290.8" font-family="Mono" font-size="14.00" fill="#000000">connect_to &#160;&#160;: ConnectTo</text>
<text text-anchor="start" x="200.4119" y="-253.8" font-family="Mono" font-size="14.00" fill="#000000">&#45;&gt; MultiSetupResult</text>
</g>
<!-- AvThread -->
<g id="node2" class="node">
<title>AvThread</title>
<polygon fill="none" stroke="#000000" points="1511.5592,-145 1339.564,-274.0129 995.5737,-274.0129 823.5786,-145 995.5737,-15.9871 1339.564,-15.9871 1511.5592,-145"/>
<text text-anchor="start" x="1129.5689" y="-205.8" font-family="Sans Bold" font-weight="bold" font-size="14.00" fill="#000000">AvThread</text>
<text text-anchor="start" x="969.5689" y="-168.8" font-family="Mono" font-size="14.00" fill="#000000">av_context &#160;&#160;&#160;&#160;&#160;&#160;&#160;&#160;&#160;&#160;&#160;: Option&lt;Box&lt;thread::Av&gt;&gt;,</text>
<text text-anchor="start" x="969.5689" y="-153.8" font-family="Mono" font-size="14.00" fill="#000000">rfmod_channel_fire &#160;&#160;&#160;: Option&lt;rfmod::Channel&gt;,</text>
<text text-anchor="start" x="969.5689" y="-138.8" font-family="Mono" font-size="14.00" fill="#000000">rfmod_channel_music &#160;&#160;: Option&lt;rfmod::Channel&gt;,</text>
<text text-anchor="start" x="969.5689" y="-123.8" font-family="Mono" font-size="14.00" fill="#000000">frame &#160;&#160;&#160;&#160;&#160;&#160;&#160;&#160;&#160;&#160;&#160;&#160;&#160;&#160;&#160;&#160;: u64,</text>
<text text-anchor="start" x="969.5689" y="-108.8" font-family="Mono" font-size="14.00" fill="#000000">reset_audio_on_term &#160;&#160;: bool,</text>
<text text-anchor="start" x="969.5689" y="-93.8" font-family="Mono" font-size="14.00" fill="#000000">connection_state &#160;&#160;&#160;&#160;&#160;: ConnectionState,</text>
<text text-anchor="start" x="969.5689" y="-78.8" font-family="Mono" font-size="14.00" fill="#000000">connecting_anim_start : time::Instant</text>
</g>
<!-- MainThread&#45;&gt;AvThread -->
<g id="edge1" class="edge">
<title>MainThread&#45;&gt;AvThread</title>
<path fill="none" stroke="#000000" stroke-dasharray="5,2" d="M494.598,-269.1955C610.7629,-247.7575 755.5865,-221.0306 881.0956,-197.8681"/>
<polygon fill="#000000" stroke="#000000" points="891.249,-195.9943 882.2317,-202.2345 886.332,-196.9018 881.415,-197.8092 881.415,-197.8092 881.415,-197.8092 886.332,-196.9018 880.5983,-193.384 891.249,-195.9943 891.249,-195.9943"/>
<text text-anchor="start" x="585.8238" y="-256.8" font-family="Sans Italic" font-size="14.00" fill="#000000">MainToAv &lt;MainToAvMsg&gt;</text>
</g>
<!-- NetThread -->
<g id="node3" class="node">
<title>NetThread</title>
<polygon fill="none" stroke="#000000" points="1457.2815,-360 1312.4252,-427.5392 1022.7125,-427.5392 877.8562,-360 1022.7125,-292.4608 1312.4252,-292.4608 1457.2815,-360"/>
<text text-anchor="start" x="1125.0689" y="-382.8" font-family="Sans Bold" font-weight="bold" font-size="14.00" fill="#000000">NetThread</text>
<text text-anchor="start" x="1002.5689" y="-345.8" font-family="Mono" font-size="14.00" fill="#000000">net_context : Option&lt;thread::Net&gt;,</text>
<text text-anchor="start" x="1002.5689" y="-330.8" font-family="Mono" font-size="14.00" fill="#000000">timeout &#160;&#160;&#160;&#160;: Option&lt;std::time::Instant&gt;</text>
</g>
<!-- MainThread&#45;&gt;NetThread -->
<g id="edge2" class="edge">
<title>MainThread&#45;&gt;NetThread</title>
<path fill="none" stroke="#000000" stroke-dasharray="5,2" d="M537.455,-312.6628C617.4473,-314.7269 705.8252,-317.9541 786.8238,-323 830.5767,-325.7256 877.08,-329.5055 922.0064,-333.6149"/>
<polygon fill="#000000" stroke="#000000" points="932.1708,-334.5526 921.7997,-338.1148 927.192,-334.0932 922.2131,-333.6339 922.2131,-333.6339 922.2131,-333.6339 927.192,-334.0932 922.6265,-329.1529 932.1708,-334.5526 932.1708,-334.5526"/>
<text text-anchor="start" x="578.8238" y="-326.8" font-family="Sans Italic" font-size="14.00" fill="#000000">MainToNet &lt;MainToNetMsg&gt;</text>
</g>
<!-- NetThread&#45;&gt;MainThread -->
<g id="edge3" class="edge">
<title>NetThread&#45;&gt;MainThread</title>
<path fill="none" stroke="#000000" stroke-dasharray="5,2" d="M892.5779,-353.0877C793.6,-349.7112 681.1343,-344.852 578.8238,-338 560.795,-336.7926 542.1712,-335.383 523.4412,-333.8478"/>
<polygon fill="#000000" stroke="#000000" points="513.3351,-333.0084 523.6734,-329.3517 518.318,-333.4223 523.3008,-333.8362 523.3008,-333.8362 523.3008,-333.8362 518.318,-333.4223 522.9283,-338.3208 513.3351,-333.0084 513.3351,-333.0084"/>
<text text-anchor="start" x="578.8238" y="-352.8" font-family="Sans Italic" font-size="14.00" fill="#000000">NetToMain &lt;NetToMainMsg&gt;</text>
</g>
</g>
</svg>
