<?xml version="1.0" encoding="UTF-8" standalone="no"?>
<!DOCTYPE svg PUBLIC "-//W3C//DTD SVG 1.1//EN"
 "http://www.w3.org/Graphics/SVG/1.1/DTD/svg11.dtd">
<!-- Generated by graphviz version 2.40.1 (20161225.0304)
 -->
<!-- Title: %3 Pages: 1 -->
<svg width="1216pt" height="257pt"
 viewBox="0.00 0.00 2716.00 307.00" xmlns="http://www.w3.org/2000/svg" xmlns:xlink="http://www.w3.org/1999/xlink">
<g id="graph0" class="graph" transform="scale(1 1) rotate(0) translate(4 303)">
<title>%3</title>
<polygon fill="#ffffff" stroke="transparent" points="-4,4 -4,-303 2711.9959,-303 2711.9959,4 -4,4"/>
<g id="clust1" class="cluster">
<title>cluster_Practice</title>
<path fill="none" stroke="#000000" d="M20,-8C20,-8 2687.9959,-8 2687.9959,-8 2693.9959,-8 2699.9959,-14 2699.9959,-20 2699.9959,-20 2699.9959,-279 2699.9959,-279 2699.9959,-285 2693.9959,-291 2687.9959,-291 2687.9959,-291 20,-291 20,-291 14,-291 8,-285 8,-279 8,-279 8,-20 8,-20 8,-14 14,-8 20,-8"/>
<text text-anchor="start" x="1321.4979" y="-275.8" font-family="Sans Bold Italic" font-size="14.00" fill="#000000">Practice</text>
</g>
<!-- MainThread -->
<g id="node1" class="node">
<title>MainThread</title>
<polygon fill="none" stroke="#000000" points="608.6648,-138 460.5265,-260.449 164.25,-260.449 16.1117,-138 164.25,-15.551 460.5265,-15.551 608.6648,-138"/>
<text text-anchor="start" x="264.3883" y="-194.8" font-family="Sans Bold" font-weight="bold" font-size="14.00" fill="#000000">MainThread</text>
<text text-anchor="start" x="143.3883" y="-157.8" font-family="Mono" font-size="14.00" fill="#000000">main_context &#160;&#160;&#160;&#160;&#160;: Option&lt;thread::Main&gt;,</text>
<text text-anchor="start" x="143.3883" y="-142.8" font-family="Mono" font-size="14.00" fill="#000000">lock_mouselook &#160;&#160;&#160;: bool,</text>
<text text-anchor="start" x="143.3883" y="-127.8" font-family="Mono" font-size="14.00" fill="#000000">input_map_keydown : VecMap&lt;InputFun&gt;,</text>
<text text-anchor="start" x="143.3883" y="-112.8" font-family="Mono" font-size="14.00" fill="#000000">input_map_keyup &#160;&#160;: VecMap&lt;InputFun&gt;</text>
<text text-anchor="start" x="242.3883" y="-75.8" font-family="Mono" font-size="14.00" fill="#000000">&#45;&gt; PracticeResult</text>
</g>
<!-- AvThread -->
<g id="node2" class="node">
<title>AvThread</title>
<polygon fill="none" stroke="#000000" points="2691.8606,-130 2526.9959,-210.0333 2197.2666,-210.0333 2032.402,-130 2197.2666,-49.9667 2526.9959,-49.9667 2691.8606,-130"/>
<text text-anchor="start" x="2323.6313" y="-160.8" font-family="Sans Bold" font-weight="bold" font-size="14.00" fill="#000000">AvThread</text>
<text text-anchor="start" x="2172.1313" y="-123.8" font-family="Mono" font-size="14.00" fill="#000000">av_context &#160;&#160;&#160;&#160;&#160;&#160;&#160;&#160;&#160;: Option&lt;Box&lt;thread::Av&gt;&gt;,</text>
<text text-anchor="start" x="2172.1313" y="-108.8" font-family="Mono" font-size="14.00" fill="#000000">rfmod_channel_music : Option&lt;rfmod::Channel&gt;,</text>
<text text-anchor="start" x="2172.1313" y="-93.8" font-family="Mono" font-size="14.00" fill="#000000">frame &#160;&#160;&#160;&#160;&#160;&#160;&#160;&#160;&#160;&#160;&#160;&#160;&#160;&#160;: u64</text>
</g>
<!-- MainThread&#45;&gt;AvThread -->
<g id="edge1" class="edge">
<title>MainThread&#45;&gt;AvThread</title>
<path fill="none" stroke="#000000" stroke-dasharray="5,2" d="M531.726,-74.1824C615.2022,-55.0262 711.667,-39 800.7765,-39 800.7765,-39 800.7765,-39 1856.2666,-39 1949.1698,-39 2050.1757,-54.0511 2137.3278,-71.911"/>
<polygon fill="#000000" stroke="#000000" points="2147.3413,-73.9878 2136.6358,-76.3632 2142.4455,-72.9723 2137.5496,-71.9569 2137.5496,-71.9569 2137.5496,-71.9569 2142.4455,-72.9723 2138.4635,-67.5507 2147.3413,-73.9878 2147.3413,-73.9878"/>
<text text-anchor="start" x="1239.5216" y="-42.8" font-family="Sans Italic" font-size="14.00" fill="#000000">MainToAv &lt;MainToAvMsg&gt;</text>
</g>
<!-- SimulationThread -->
<g id="node3" class="node">
<title>SimulationThread</title>
<polygon fill="none" stroke="#000000" points="1680.5119,-164 1508.5167,-256.0288 1164.5264,-256.0288 992.5313,-164 1164.5264,-71.9712 1508.5167,-71.9712 1680.5119,-164"/>
<text text-anchor="start" x="1264.0216" y="-201.8" font-family="Sans Bold" font-weight="bold" font-size="14.00" fill="#000000">SimulationThread</text>
<text text-anchor="start" x="1138.5216" y="-164.8" font-family="Mono" font-size="14.00" fill="#000000">simulation_context : Simulation,</text>
<text text-anchor="start" x="1138.5216" y="-149.8" font-family="Mono" font-size="14.00" fill="#000000">rng &#160;&#160;&#160;&#160;&#160;&#160;&#160;&#160;&#160;&#160;&#160;&#160;&#160;&#160;&#160;: rand_xorshift::XorShiftRng,</text>
<text text-anchor="start" x="1138.5216" y="-134.8" font-family="Mono" font-size="14.00" fill="#000000">bot_move_states &#160;&#160;&#160;: Vec&lt;player::MoveState&gt;,</text>
<text text-anchor="start" x="1138.5216" y="-119.8" font-family="Mono" font-size="14.00" fill="#000000">quit &#160;&#160;&#160;&#160;&#160;&#160;&#160;&#160;&#160;&#160;&#160;&#160;&#160;&#160;: bool</text>
</g>
<!-- MainThread&#45;&gt;SimulationThread -->
<g id="edge2" class="edge">
<title>MainThread&#45;&gt;SimulationThread</title>
<path fill="none" stroke="#000000" stroke-dasharray="5,2" d="M600.0508,-145.303C723.7391,-148.4431 869.2026,-152.136 998.0386,-155.4068"/>
<polygon fill="#000000" stroke="#000000" points="1008.0734,-155.6616 997.9624,-159.9062 1003.075,-155.5346 998.0766,-155.4077 998.0766,-155.4077 998.0766,-155.4077 1003.075,-155.5346 998.1909,-150.9091 1008.0734,-155.6616 1008.0734,-155.6616"/>
<text text-anchor="start" x="645.7765" y="-157.8" font-family="Sans Italic" font-size="14.00" fill="#000000">MainToSimulation &lt;MainToSimulationMsg&gt;</text>
</g>
<!-- SimulationThread&#45;&gt;AvThread -->
<g id="edge3" class="edge">
<title>SimulationThread&#45;&gt;AvThread</title>
<path fill="none" stroke="#000000" stroke-dasharray="5,2" d="M1660.6788,-153.2539C1782.7057,-149.2085 1921.2925,-144.6143 2042.8696,-140.5838"/>
<polygon fill="#000000" stroke="#000000" points="2053.082,-140.2453 2043.2366,-145.0742 2048.0847,-140.411 2043.0875,-140.5767 2043.0875,-140.5767 2043.0875,-140.5767 2048.0847,-140.411 2042.9383,-136.0792 2053.082,-140.2453 2053.082,-140.2453"/>
<text text-anchor="start" x="1717.2666" y="-154.8" font-family="Sans Italic" font-size="14.00" fill="#000000">SimulationToAv &lt;SimulationToAvMsg&gt;</text>
</g>
</g>
</svg>
