<?xml version="1.0" encoding="UTF-8" standalone="no"?>
<!DOCTYPE svg PUBLIC "-//W3C//DTD SVG 1.1//EN"
 "http://www.w3.org/Graphics/SVG/1.1/DTD/svg11.dtd">
<!-- Generated by graphviz version 2.40.1 (20161225.0304)
 -->
<!-- Title: %3 Pages: 1 -->
<svg width="894pt" height="245pt"
 viewBox="0.00 0.00 1493.55 345.00" xmlns="http://www.w3.org/2000/svg" xmlns:xlink="http://www.w3.org/1999/xlink">
<g id="graph0" class="graph" transform="scale(1 1) rotate(0) translate(4 341)">
<title>%3</title>
<polygon fill="#ffffff" stroke="transparent" points="-4,4 -4,-341 1489.553,-341 1489.553,4 -4,4"/>
<g id="clust1" class="cluster">
<title>cluster_Splash</title>
<path fill="none" stroke="#000000" d="M20,-8C20,-8 1465.553,-8 1465.553,-8 1471.553,-8 1477.553,-14 1477.553,-20 1477.553,-20 1477.553,-317 1477.553,-317 1477.553,-323 1471.553,-329 1465.553,-329 1465.553,-329 20,-329 20,-329 14,-329 8,-323 8,-317 8,-317 8,-20 8,-20 8,-14 14,-8 20,-8"/>
<text text-anchor="start" x="715.2765" y="-313.8" font-family="Sans Bold Italic" font-size="14.00" fill="#000000">Splash</text>
</g>
<!-- MainThread -->
<g id="node1" class="node">
<title>MainThread</title>
<polygon fill="none" stroke="#000000" points="541.7357,-157 410.3238,-254.9592 147.5,-254.9592 16.0881,-157 147.5,-59.0408 410.3238,-59.0408 541.7357,-157"/>
<text text-anchor="start" x="230.4119" y="-198.8" font-family="Sans Bold" font-weight="bold" font-size="14.00" fill="#000000">MainThread</text>
<text text-anchor="start" x="129.9119" y="-161.8" font-family="Mono" font-size="14.00" fill="#000000">main_context : Option&lt;thread::Main&gt;,</text>
<text text-anchor="start" x="129.9119" y="-146.8" font-family="Mono" font-size="14.00" fill="#000000">input_map &#160;&#160;&#160;: VecMap&lt;InputFun&gt;</text>
<text text-anchor="start" x="216.9119" y="-109.8" font-family="Mono" font-size="14.00" fill="#000000">&#45;&gt; SplashResult</text>
</g>
<!-- AvThread -->
<g id="node2" class="node">
<title>AvThread</title>
<polygon fill="none" stroke="#000000" points="1469.4177,-157 1304.5531,-298.0082 974.8238,-298.0082 809.9591,-157 974.8238,-15.9918 1304.5531,-15.9918 1469.4177,-157"/>
<text text-anchor="start" x="1101.1884" y="-224.8" font-family="Sans Bold" font-weight="bold" font-size="14.00" fill="#000000">AvThread</text>
<text text-anchor="start" x="949.6884" y="-187.8" font-family="Mono" font-size="14.00" fill="#000000">av_context &#160;&#160;&#160;: Option&lt;Box&lt;thread::Av&gt;&gt;,</text>
<text text-anchor="start" x="949.6884" y="-172.8" font-family="Mono" font-size="14.00" fill="#000000">frame &#160;&#160;&#160;&#160;&#160;&#160;&#160;&#160;: u64,</text>
<text text-anchor="start" x="949.6884" y="-157.8" font-family="Mono" font-size="14.00" fill="#000000">start_time &#160;&#160;&#160;: Option&lt;std::time::SystemTime&gt;,</text>
<text text-anchor="start" x="949.6884" y="-142.8" font-family="Mono" font-size="14.00" fill="#000000">wait_time &#160;&#160;&#160;&#160;: Option&lt;std::time::SystemTime&gt;,</text>
<text text-anchor="start" x="949.6884" y="-127.8" font-family="Mono" font-size="14.00" fill="#000000">end_time &#160;&#160;&#160;&#160;&#160;: Option&lt;std::time::SystemTime&gt;,</text>
<text text-anchor="start" x="949.6884" y="-112.8" font-family="Mono" font-size="14.00" fill="#000000">wakeup_sent &#160;&#160;: bool,</text>
<text text-anchor="start" x="949.6884" y="-97.8" font-family="Mono" font-size="14.00" fill="#000000">clear_color &#160;&#160;: (f32, f32, f32, f32),</text>
<text text-anchor="start" x="949.6884" y="-82.8" font-family="Mono" font-size="14.00" fill="#000000">rfmod_channel : Option&lt;rfmod::Channel&gt;</text>
</g>
<!-- MainThread&#45;&gt;AvThread -->
<g id="edge1" class="edge">
<title>MainThread&#45;&gt;AvThread</title>
<path fill="none" stroke="#000000" stroke-dasharray="5,2" d="M541.8504,-157C623.1748,-157 713.9493,-157 799.7083,-157"/>
<polygon fill="#000000" stroke="#000000" points="809.8704,-157 799.8704,-161.5001 804.8704,-157 799.8704,-157.0001 799.8704,-157.0001 799.8704,-157.0001 804.8704,-157 799.8703,-152.5001 809.8704,-157 809.8704,-157"/>
<text text-anchor="start" x="578.8238" y="-160.8" font-family="Sans Italic" font-size="14.00" fill="#000000">MainToAv &lt;MainToAvMsg&gt;</text>
</g>
</g>
</svg>
