<?xml version="1.0" encoding="UTF-8" standalone="no"?>
<!DOCTYPE svg PUBLIC "-//W3C//DTD SVG 1.1//EN"
 "http://www.w3.org/Graphics/SVG/1.1/DTD/svg11.dtd">
<!-- Generated by graphviz version 2.40.1 (20161225.0304)
 -->
<!-- Title: %3 Pages: 1 -->
<svg width="894pt" height="200pt"
 viewBox="0.00 0.00 1493.55 273.00" xmlns="http://www.w3.org/2000/svg" xmlns:xlink="http://www.w3.org/1999/xlink">
<g id="graph0" class="graph" transform="scale(1 1) rotate(0) translate(4 269)">
<title>%3</title>
<polygon fill="#ffffff" stroke="transparent" points="-4,4 -4,-269 1489.553,-269 1489.553,4 -4,4"/>
<g id="clust1" class="cluster">
<title>cluster_TitleMenu</title>
<path fill="none" stroke="#000000" d="M20,-8C20,-8 1465.553,-8 1465.553,-8 1471.553,-8 1477.553,-14 1477.553,-20 1477.553,-20 1477.553,-245 1477.553,-245 1477.553,-251 1471.553,-257 1465.553,-257 1465.553,-257 20,-257 20,-257 14,-257 8,-251 8,-245 8,-245 8,-20 8,-20 8,-14 14,-8 20,-8"/>
<text text-anchor="start" x="701.7765" y="-241.8" font-family="Sans Bold Italic" font-size="14.00" fill="#000000">TitleMenu</text>
</g>
<!-- MainThread -->
<g id="node1" class="node">
<title>MainThread</title>
<polygon fill="none" stroke="#000000" points="541.7357,-121 410.3238,-218.9592 147.5,-218.9592 16.0881,-121 147.5,-23.0408 410.3238,-23.0408 541.7357,-121"/>
<text text-anchor="start" x="230.4119" y="-162.8" font-family="Sans Bold" font-weight="bold" font-size="14.00" fill="#000000">MainThread</text>
<text text-anchor="start" x="129.9119" y="-125.8" font-family="Mono" font-size="14.00" fill="#000000">main_context : Option&lt;thread::Main&gt;,</text>
<text text-anchor="start" x="129.9119" y="-110.8" font-family="Mono" font-size="14.00" fill="#000000">input_map &#160;&#160;&#160;: VecMap&lt;InputFun&gt;</text>
<text text-anchor="start" x="204.4119" y="-73.8" font-family="Mono" font-size="14.00" fill="#000000">&#45;&gt; TitleMenuResult</text>
</g>
<!-- AvThread -->
<g id="node2" class="node">
<title>AvThread</title>
<polygon fill="none" stroke="#000000" points="1469.4177,-121 1304.5531,-225.5231 974.8238,-225.5231 809.9591,-121 974.8238,-16.4769 1304.5531,-16.4769 1469.4177,-121"/>
<text text-anchor="start" x="1101.1884" y="-166.8" font-family="Sans Bold" font-weight="bold" font-size="14.00" fill="#000000">AvThread</text>
<text text-anchor="start" x="949.6884" y="-129.8" font-family="Mono" font-size="14.00" fill="#000000">av_context &#160;&#160;&#160;&#160;&#160;&#160;&#160;&#160;&#160;: Option&lt;Box&lt;thread::Av&gt;&gt;,</text>
<text text-anchor="start" x="949.6884" y="-114.8" font-family="Mono" font-size="14.00" fill="#000000">rfmod_channel_fire &#160;: Option&lt;rfmod::Channel&gt;,</text>
<text text-anchor="start" x="949.6884" y="-99.8" font-family="Mono" font-size="14.00" fill="#000000">rfmod_channel_music : Option&lt;rfmod::Channel&gt;,</text>
<text text-anchor="start" x="949.6884" y="-84.8" font-family="Mono" font-size="14.00" fill="#000000">frame &#160;&#160;&#160;&#160;&#160;&#160;&#160;&#160;&#160;&#160;&#160;&#160;&#160;&#160;: u64,</text>
<text text-anchor="start" x="949.6884" y="-69.8" font-family="Mono" font-size="14.00" fill="#000000">reset_audio_on_term : bool</text>
</g>
<!-- MainThread&#45;&gt;AvThread -->
<g id="edge1" class="edge">
<title>MainThread&#45;&gt;AvThread</title>
<path fill="none" stroke="#000000" stroke-dasharray="5,2" d="M541.8504,-121C623.1748,-121 713.9493,-121 799.7083,-121"/>
<polygon fill="#000000" stroke="#000000" points="809.8704,-121 799.8704,-125.5001 804.8704,-121 799.8704,-121.0001 799.8704,-121.0001 799.8704,-121.0001 804.8704,-121 799.8703,-116.5001 809.8704,-121 809.8704,-121"/>
<text text-anchor="start" x="578.8238" y="-124.8" font-family="Sans Italic" font-size="14.00" fill="#000000">MainToAv &lt;MainToAvMsg&gt;</text>
</g>
</g>
</svg>
