<?xml version="1.0" encoding="UTF-8" standalone="no"?>
<!DOCTYPE svg PUBLIC "-//W3C//DTD SVG 1.0//EN" "http://www.w3.org/TR/2001/PR-SVG-20010719/DTD/svg10.dtd">
<svg width="39cm" height="177cm" viewBox="-256 -37 767 3528" xmlns="http://www.w3.org/2000/svg" xmlns:xlink="http://www.w3.org/1999/xlink">
  <g>
    <ellipse style="fill: #ffffff" cx="109.727" cy="29.8634" rx="39.7268" ry="19.8634"/>
    <ellipse style="fill: none; fill-opacity:0; stroke-width: 2; stroke: #000000" cx="109.727" cy="29.8634" rx="39.7268" ry="19.8634"/>
    <text font-size="12.8" style="fill: #000000;text-anchor:middle;font-family:sans-serif;font-style:normal;font-weight:normal" x="109.727" y="33.7634">
      <tspan x="109.727" y="33.7634">Input</tspan>
    </text>
  </g>
  <g>
    <line style="fill: none; fill-opacity:0; stroke-width: 2; stroke: #000000" x1="109.781" y1="50.7188" x2="109.829" y2="69.2818"/>
    <polygon style="fill: #000000" points="109.849,76.7818 104.823,66.7948 109.829,69.2818 114.823,66.7688 "/>
    <polygon style="fill: none; fill-opacity:0; stroke-width: 2; stroke: #000000" points="109.849,76.7818 104.823,66.7948 109.829,69.2818 114.823,66.7688 "/>
  </g>
  <g>
    <g>
      <rect style="fill: #ffffff" x="0" y="80" width="220" height="110"/>
      <rect style="fill: none; fill-opacity:0; stroke-width: 2; stroke: #000000" x="0" y="80" width="220" height="110"/>
      <text font-size="12.8" style="fill: #000000;text-anchor:middle;font-family:sans-serif;font-style:normal;font-weight:normal" x="110" y="138.9">
        <tspan x="110" y="138.9"></tspan>
      </text>
    </g>
    <text font-size="12.8" style="fill: #000000;text-anchor:start;font-family:sans-serif;font-style:normal;font-weight:normal" x="10" y="95">
      <tspan x="10" y="95">phase_1_parse_input</tspan>
    </text>
    <g>
      <rect style="fill: #ffffff" x="10" y="105" width="200" height="75"/>
      <rect style="fill: none; fill-opacity:0; stroke-width: 2; stroke: #000000" x="10" y="105" width="200" height="75"/>
      <text font-size="12.8" style="fill: #000000;text-anchor:middle;font-family:sans-serif;font-style:normal;font-weight:normal" x="110" y="146.4">
        <tspan x="110" y="146.4"></tspan>
      </text>
    </g>
    <text font-size="12.8" style="fill: #000000;text-anchor:start;font-family:sans-serif;font-style:normal;font-weight:normal" x="20" y="120">
      <tspan x="20" y="120">Parser::parse_crate_from_*</tspan>
    </text>
    <g>
      <rect style="fill: #ffffff" x="20" y="130" width="180" height="40"/>
      <rect style="fill: none; fill-opacity:0; stroke-width: 2; stroke: #000000" x="20" y="130" width="180" height="40"/>
      <text font-size="12.8" style="fill: #000000;text-anchor:middle;font-family:sans-serif;font-style:normal;font-weight:normal" x="110" y="153.9">
        <tspan x="110" y="153.9"></tspan>
      </text>
    </g>
    <text font-size="12.8" style="fill: #000000;text-anchor:start;font-family:sans-serif;font-style:normal;font-weight:normal" x="30" y="145">
      <tspan x="30" y="145">while Parser::parse_item</tspan>
      <tspan x="30" y="161">  ...</tspan>
    </text>
  </g>
  <g>
    <ellipse style="fill: #ffffff" cx="110.914" cy="255.457" rx="70.9144" ry="35.4572"/>
    <ellipse style="fill: none; fill-opacity:0; stroke-width: 2; stroke: #000000" cx="110.914" cy="255.457" rx="70.9144" ry="35.4572"/>
    <text font-size="12.8" style="fill: #000000;text-anchor:middle;font-family:sans-serif;font-style:normal;font-weight:normal" x="110.914" y="251.357">
      <tspan x="110.914" y="251.357">(unexpanded)</tspan>
      <tspan x="110.914" y="267.357">ast::Crate</tspan>
    </text>
  </g>
  <g>
    <line style="fill: none; fill-opacity:0; stroke-width: 2; stroke: #000000" x1="110.425" y1="191.001" x2="110.565" y2="209.373"/>
    <polygon style="fill: #000000" points="110.622,216.872 105.546,206.911 110.565,209.373 115.545,206.835 "/>
    <polygon style="fill: none; fill-opacity:0; stroke-width: 2; stroke: #000000" points="110.622,216.872 105.546,206.911 110.565,209.373 115.545,206.835 "/>
  </g>
  <g>
    <rect style="fill: #ffffff" x="-255" y="320" width="765" height="2985"/>
    <rect style="fill: none; fill-opacity:0; stroke-width: 2; stroke: #000000" x="-255" y="320" width="765" height="2985"/>
    <text font-size="12.8" style="fill: #000000;text-anchor:middle;font-family:sans-serif;font-style:normal;font-weight:normal" x="127.5" y="1816.4">
      <tspan x="127.5" y="1816.4"></tspan>
    </text>
  </g>
  <text font-size="12.8" style="fill: #000000;text-anchor:start;font-family:sans-serif;font-style:normal;font-weight:normal" x="-245" y="335">
    <tspan x="-245" y="335">phase_2_configure_and_expand</tspan>
  </text>
  <g>
    <line style="fill: none; fill-opacity:0; stroke-width: 2; stroke: #000000" x1="111.303" y1="291.915" x2="111.488" y2="309.276"/>
    <polygon style="fill: #000000" points="111.568,316.775 106.461,306.829 111.488,309.276 116.461,306.723 "/>
    <polygon style="fill: none; fill-opacity:0; stroke-width: 2; stroke: #000000" points="111.568,316.775 106.461,306.829 111.488,309.276 116.461,306.723 "/>
  </g>
  <g>
    <ellipse style="fill: #ffffff" cx="39.5773" cy="382.289" rx="74.5773" ry="37.2886"/>
    <ellipse style="fill: none; fill-opacity:0; stroke-width: 2; stroke: #000000" cx="39.5773" cy="382.289" rx="74.5773" ry="37.2886"/>
    <text font-size="12.8" style="fill: #000000;text-anchor:middle;font-family:sans-serif;font-style:normal;font-weight:normal" x="39.5773" y="386.189">
      <tspan x="39.5773" y="386.189">*ExpansionConfig*</tspan>
    </text>
  </g>
  <g>
    <ellipse style="fill: #ffffff" cx="202.109" cy="381.054" rx="52.1088" ry="26.0544"/>
    <ellipse style="fill: none; fill-opacity:0; stroke-width: 2; stroke: #000000" cx="202.109" cy="381.054" rx="52.1088" ry="26.0544"/>
    <text font-size="12.8" style="fill: #000000;text-anchor:middle;font-family:sans-serif;font-style:normal;font-weight:normal" x="202.109" y="384.954">
      <tspan x="202.109" y="384.954">*Resolver*</tspan>
    </text>
  </g>
  <g>
    <rect style="fill: #ffffff" x="0" y="440" width="250" height="38"/>
    <rect style="fill: none; fill-opacity:0; stroke-width: 2; stroke: #000000" x="0" y="440" width="250" height="38"/>
    <text font-size="12.8" style="fill: #000000;text-anchor:middle;font-family:sans-serif;font-style:normal;font-weight:normal" x="125" y="462.9">
      <tspan x="125" y="462.9"></tspan>
    </text>
  </g>
  <text font-size="12.8" style="fill: #000000;text-anchor:start;font-family:sans-serif;font-style:normal;font-weight:normal" x="10" y="459">
    <tspan x="10" y="459">ExtCtxt::new().monotonic_expander</tspan>
  </text>
  <g>
    <ellipse style="fill: #ffffff" cx="125.609" cy="547.804" rx="65.6085" ry="32.8043"/>
    <ellipse style="fill: none; fill-opacity:0; stroke-width: 2; stroke: #000000" cx="125.609" cy="547.804" rx="65.6085" ry="32.8043"/>
    <text font-size="12.8" style="fill: #000000;text-anchor:middle;font-family:sans-serif;font-style:normal;font-weight:normal" x="125.609" y="551.704">
      <tspan x="125.609" y="551.704">MacroExpander</tspan>
    </text>
  </g>
  <g>
    <line style="fill: none; fill-opacity:0; stroke-width: 2; stroke: #000000" x1="125.137" y1="479" x2="125.311" y2="504.333"/>
    <polygon style="fill: #000000" points="125.362,511.833 120.294,501.868 125.311,504.333 130.293,501.799 "/>
    <polygon style="fill: none; fill-opacity:0; stroke-width: 2; stroke: #000000" points="125.362,511.833 120.294,501.868 125.311,504.333 130.293,501.799 "/>
  </g>
  <g>
    <line style="fill: none; fill-opacity:0; stroke-width: 2; stroke: #000000" x1="76.6004" y1="415.536" x2="95.5245" y2="432.53"/>
    <polygon style="fill: #000000" points="101.105,437.542 90.3237,434.58 95.5245,432.53 97.0052,427.14 "/>
    <polygon style="fill: none; fill-opacity:0; stroke-width: 2; stroke: #000000" points="101.105,437.542 90.3237,434.58 95.5245,432.53 97.0052,427.14 "/>
  </g>
  <g>
    <line style="fill: none; fill-opacity:0; stroke-width: 2; stroke: #000000" x1="178.304" y1="405.117" x2="151.614" y2="432.097"/>
    <polygon style="fill: #000000" points="146.339,437.429 149.817,426.804 151.614,432.097 156.927,433.836 "/>
    <polygon style="fill: none; fill-opacity:0; stroke-width: 2; stroke: #000000" points="146.339,437.429 149.817,426.804 151.614,432.097 156.927,433.836 "/>
  </g>
  <g>
    <rect style="fill: #ffffff" x="-240" y="630" width="735" height="1940"/>
    <rect style="fill: none; fill-opacity:0; stroke-width: 2; stroke: #000000" x="-240" y="630" width="735" height="1940"/>
    <text font-size="12.8" style="fill: #000000;text-anchor:middle;font-family:sans-serif;font-style:normal;font-weight:normal" x="127.5" y="1603.9">
      <tspan x="127.5" y="1603.9"></tspan>
    </text>
  </g>
  <g>
    <line style="fill: none; fill-opacity:0; stroke-width: 2; stroke: #000000" x1="125.669" y1="581.601" x2="125.737" y2="619.268"/>
    <polygon style="fill: #000000" points="125.75,626.768 120.733,616.777 125.737,619.268 130.732,616.759 "/>
    <polygon style="fill: none; fill-opacity:0; stroke-width: 2; stroke: #000000" points="125.75,626.768 120.733,616.777 125.737,619.268 130.732,616.759 "/>
  </g>
  <text font-size="12.8" style="fill: #000000;text-anchor:start;font-family:sans-serif;font-style:normal;font-weight:normal" x="-230" y="649">
    <tspan x="-230" y="649">MacroExpander::expand_crate</tspan>
  </text>
  <g>
    <ellipse style="fill: #ffffff" cx="123.421" cy="706.711" rx="113.421" ry="56.7106"/>
    <ellipse style="fill: none; fill-opacity:0; stroke-width: 2; stroke: #000000" cx="123.421" cy="706.711" rx="113.421" ry="56.7106"/>
    <text font-size="12.8" style="fill: #000000;text-anchor:middle;font-family:sans-serif;font-style:normal;font-weight:normal" x="123.421" y="710.611">
      <tspan x="123.421" y="710.611">*Expansion::Items ([ast::Mod])*</tspan>
    </text>
  </g>
  <g>
    <rect style="fill: #ffffff" x="-225" y="795" width="705" height="1595"/>
    <rect style="fill: none; fill-opacity:0; stroke-width: 2; stroke: #000000" x="-225" y="795" width="705" height="1595"/>
    <text font-size="12.8" style="fill: #000000;text-anchor:middle;font-family:sans-serif;font-style:normal;font-weight:normal" x="127.5" y="1596.4">
      <tspan x="127.5" y="1596.4"></tspan>
    </text>
  </g>
  <text font-size="12.8" style="fill: #000000;text-anchor:start;font-family:sans-serif;font-style:normal;font-weight:normal" x="-215" y="814">
    <tspan x="-215" y="814">MacroExpander::expand</tspan>
  </text>
  <g>
    <line style="fill: none; fill-opacity:0; stroke-width: 2; stroke: #000000" x1="123.687" y1="764.411" x2="123.778" y2="784.275"/>
    <polygon style="fill: #000000" points="123.813,791.775 118.767,781.798 123.778,784.275 128.767,781.752 "/>
    <polygon style="fill: none; fill-opacity:0; stroke-width: 2; stroke: #000000" points="123.813,791.775 118.767,781.798 123.778,784.275 128.767,781.752 "/>
  </g>
  <g>
    <rect style="fill: #ffffff" x="-210" y="825" width="555" height="310"/>
    <rect style="fill: none; fill-opacity:0; stroke-width: 2; stroke: #000000" x="-210" y="825" width="555" height="310"/>
    <text font-size="12.8" style="fill: #000000;text-anchor:middle;font-family:sans-serif;font-style:normal;font-weight:normal" x="67.5" y="983.9">
      <tspan x="67.5" y="983.9"></tspan>
    </text>
  </g>
  <text font-size="12.8" style="fill: #000000;text-anchor:start;font-family:sans-serif;font-style:normal;font-weight:normal" x="-200" y="844">
    <tspan x="-200" y="844">MacroExpander::collect_invocations</tspan>
  </text>
  <g>
    <rect style="fill: #ffffff" x="-80" y="1026" width="410" height="94"/>
    <rect style="fill: none; fill-opacity:0; stroke-width: 2; stroke: #000000" x="-80" y="1026" width="410" height="94"/>
    <text font-size="12.8" style="fill: #000000;text-anchor:middle;font-family:sans-serif;font-style:normal;font-weight:normal" x="125" y="1076.9">
      <tspan x="125" y="1076.9">ttt</tspan>
    </text>
  </g>
  <g>
    <rect style="fill: #ffffff" x="-65" y="1055" width="382.15" height="49"/>
    <rect style="fill: none; fill-opacity:0; stroke-width: 2; stroke: #000000" x="-65" y="1055" width="382.15" height="49"/>
    <text font-size="12.8" style="fill: #000000;text-anchor:middle;font-family:sans-serif;font-style:normal;font-weight:normal" x="126.075" y="1083.4">
      <tspan x="126.075" y="1083.4">Expansion::visit_with (BuildReducedGraphVisitor:Visitor)</tspan>
    </text>
  </g>
  <text font-size="12.8" style="fill: #000000;text-anchor:start;font-family:sans-serif;font-style:normal;font-weight:normal" x="-70" y="1045">
    <tspan x="-70" y="1045">Resolver::visit_expansion</tspan>
  </text>
  <g>
    <ellipse style="fill: #ffffff" cx="126.37" cy="950.685" rx="51.3699" ry="25.6849"/>
    <ellipse style="fill: none; fill-opacity:0; stroke-width: 2; stroke: #000000" cx="126.37" cy="950.685" rx="51.3699" ry="25.6849"/>
    <text font-size="12.8" style="fill: #000000;text-anchor:middle;font-family:sans-serif;font-style:normal;font-weight:normal" x="126.37" y="954.585">
      <tspan x="126.37" y="954.585">Expansion</tspan>
    </text>
  </g>
  <g>
    <line style="fill: none; fill-opacity:0; stroke-width: 2; stroke: #000000" x1="12.8424" y1="894.004" x2="80.4135" y2="927.74"/>
    <polygon style="fill: #000000" points="87.1236,931.091 75.9433,931.097 80.4135,927.74 80.4102,922.15 "/>
    <polygon style="fill: none; fill-opacity:0; stroke-width: 2; stroke: #000000" points="87.1236,931.091 75.9433,931.097 80.4135,927.74 80.4102,922.15 "/>
  </g>
  <g>
    <line style="fill: none; fill-opacity:0; stroke-width: 2; stroke: #000000" x1="126.071" y1="977.352" x2="125.645" y2="1015.37"/>
    <polygon style="fill: #000000" points="125.561,1022.87 120.674,1012.81 125.645,1015.37 130.673,1012.92 "/>
    <polygon style="fill: none; fill-opacity:0; stroke-width: 2; stroke: #000000" points="125.561,1022.87 120.674,1012.81 125.645,1015.37 130.673,1012.92 "/>
  </g>
  <g>
    <ellipse style="fill: #ffffff" cx="-114.412" cy="1230.29" rx="70.5882" ry="35.2941"/>
    <ellipse style="fill: none; fill-opacity:0; stroke-width: 2; stroke: #000000" cx="-114.412" cy="1230.29" rx="70.5882" ry="35.2941"/>
    <text font-size="12.8" style="fill: #000000;text-anchor:middle;font-family:sans-serif;font-style:normal;font-weight:normal" x="-114.412" y="1234.19">
      <tspan x="-114.412" y="1234.19">Vec&lt;Invocation&gt;</tspan>
    </text>
  </g>
  <g>
    <ellipse style="fill: #ffffff" cx="126.37" cy="1225.68" rx="51.3699" ry="25.6849"/>
    <ellipse style="fill: none; fill-opacity:0; stroke-width: 2; stroke: #000000" cx="126.37" cy="1225.68" rx="51.3699" ry="25.6849"/>
    <text font-size="12.8" style="fill: #000000;text-anchor:middle;font-family:sans-serif;font-style:normal;font-weight:normal" x="126.37" y="1229.58">
      <tspan x="126.37" y="1229.58">Expansion</tspan>
    </text>
  </g>
  <g>
    <line style="fill: none; fill-opacity:0; stroke-width: 2; stroke: #000000" x1="125.429" y1="1120.86" x2="126.044" y2="1189.33"/>
    <polygon style="fill: #000000" points="126.111,1196.83 121.021,1186.88 126.044,1189.33 131.021,1186.79 "/>
    <polygon style="fill: none; fill-opacity:0; stroke-width: 2; stroke: #000000" points="126.111,1196.83 121.021,1186.88 126.044,1189.33 131.021,1186.79 "/>
  </g>
  <g>
    <rect style="fill: #ffffff" x="-210" y="1305" width="675" height="579.493"/>
    <rect style="fill: none; fill-opacity:0; stroke-width: 2; stroke: #000000" x="-210" y="1305" width="675" height="579.493"/>
    <text font-size="12.8" style="fill: #000000;text-anchor:middle;font-family:sans-serif;font-style:normal;font-weight:normal" x="127.5" y="1598.65">
      <tspan x="127.5" y="1598.65"></tspan>
    </text>
  </g>
  <text font-size="12.8" style="fill: #000000;text-anchor:start;font-family:sans-serif;font-style:normal;font-weight:normal" x="-200" y="1324.49">
    <tspan x="-200" y="1324.49">while (Invocation || undetermined_invocations)</tspan>
  </text>
  <g>
    <rect style="fill: #ffffff" x="-195" y="1339.49" width="370" height="38"/>
    <rect style="fill: none; fill-opacity:0; stroke-width: 1.9812; stroke: #000000" x="-195" y="1339.49" width="370" height="38"/>
    <text font-size="12.8" style="fill: #000000;text-anchor:start;font-family:sans-serif;font-style:normal;font-weight:normal" x="-185.991" y="1362.39">
      <tspan x="-185.991" y="1362.39">Resolver::resolve_invoc</tspan>
    </text>
  </g>
  <g>
    <ellipse style="fill: #ffffff" cx="-119.299" cy="1479.84" rx="51.6869" ry="25.8435"/>
    <ellipse style="fill: none; fill-opacity:0; stroke-width: 2; stroke: #000000" cx="-119.299" cy="1479.84" rx="51.6869" ry="25.8435"/>
    <text font-size="12.8" style="fill: #000000;text-anchor:middle;font-family:sans-serif;font-style:normal;font-weight:normal" x="-119.299" y="1483.74">
      <tspan x="-119.299" y="1483.74">Invocation</tspan>
    </text>
  </g>
  <g>
    <ellipse style="fill: #ffffff" cx="65.7014" cy="1479.84" rx="110.701" ry="55.3507"/>
    <ellipse style="fill: none; fill-opacity:0; stroke-width: 2; stroke: #000000" cx="65.7014" cy="1479.84" rx="110.701" ry="55.3507"/>
    <text font-size="12.8" style="fill: #000000;text-anchor:middle;font-family:sans-serif;font-style:normal;font-weight:normal" x="65.7014" y="1483.74">
      <tspan x="65.7014" y="1483.74">Opt&lt;Opt&lt;SyntaxExtension&gt;&gt;</tspan>
    </text>
  </g>
  <g>
    <rect style="fill: #ffffff" x="-195" y="855" width="335.55" height="38"/>
    <rect style="fill: none; fill-opacity:0; stroke-width: 2; stroke: #000000" x="-195" y="855" width="335.55" height="38"/>
    <text font-size="12.8" style="fill: #000000;text-anchor:middle;font-family:sans-serif;font-style:normal;font-weight:normal" x="-27.225" y="877.9">
      <tspan x="-27.225" y="877.9">Expansion::fold_with (InvocationCollector:Folder)</tspan>
    </text>
  </g>
  <g>
    <line style="fill: none; fill-opacity:0; stroke-width: 2; stroke: #000000" x1="-91.6735" y1="1264.55" x2="-70.8719" y2="1295.89"/>
    <polygon style="fill: #000000" points="-66.7242,1302.14 -76.4202,1296.57 -70.8719,1295.89 -68.0886,1291.04 "/>
    <polygon style="fill: none; fill-opacity:0; stroke-width: 2; stroke: #000000" points="-66.7242,1302.14 -76.4202,1296.57 -70.8719,1295.89 -68.0886,1291.04 "/>
  </g>
  <g>
    <line style="fill: none; fill-opacity:0; stroke-width: 2; stroke: #000000" x1="126.452" y1="1252.37" x2="126.58" y2="1294.29"/>
    <polygon style="fill: #000000" points="126.603,1301.79 121.572,1291.81 126.58,1294.29 131.572,1291.78 "/>
    <polygon style="fill: none; fill-opacity:0; stroke-width: 2; stroke: #000000" points="126.603,1301.79 121.572,1291.81 126.58,1294.29 131.572,1291.78 "/>
  </g>
  <g>
    <path style="fill: none; fill-opacity:0; stroke-width: 2; stroke: #000000" d="M -62.0665 893.981 C -124.842,929.981 -115.386,1138.71 -114.901,1184.27"/>
    <polygon style="fill: #000000" points="-114.822,1191.77 -119.928,1181.82 -114.901,1184.27 -109.928,1181.72 "/>
    <polygon style="fill: none; fill-opacity:0; stroke-width: 2; stroke: #000000" points="-114.822,1191.77 -119.928,1181.82 -114.901,1184.27 -109.928,1181.72 "/>
  </g>
  <g>
    <line style="fill: none; fill-opacity:0; stroke-width: 2; stroke: #000000" x1="-27.9985" y1="1378.48" x2="-90.8951" y2="1448.31"/>
    <polygon style="fill: #000000" points="-95.9144,1453.88 -92.9372,1443.1 -90.8951,1448.31 -85.5068,1449.8 "/>
    <polygon style="fill: none; fill-opacity:0; stroke-width: 2; stroke: #000000" points="-95.9144,1453.88 -92.9372,1443.1 -90.8951,1448.31 -85.5068,1449.8 "/>
  </g>
  <g>
    <line style="fill: none; fill-opacity:0; stroke-width: 2; stroke: #000000" x1="2.46597" y1="1378.48" x2="27.0547" y2="1417.89"/>
    <polygon style="fill: #000000" points="31.0243,1424.25 21.4892,1418.42 27.0547,1417.89 29.9737,1413.12 "/>
    <polygon style="fill: none; fill-opacity:0; stroke-width: 2; stroke: #000000" points="31.0243,1424.25 21.4892,1418.42 27.0547,1417.89 29.9737,1413.12 "/>
  </g>
  <g>
    <rect style="fill: #ffffff" x="-115" y="1589.49" width="365" height="280"/>
    <rect style="fill: none; fill-opacity:0; stroke-width: 2; stroke: #000000" x="-115" y="1589.49" width="365" height="280"/>
    <text font-size="12.8" style="fill: #000000;text-anchor:middle;font-family:sans-serif;font-style:normal;font-weight:normal" x="67.5" y="1733.39">
      <tspan x="67.5" y="1733.39"></tspan>
    </text>
  </g>
  <text font-size="12.8" style="fill: #000000;text-anchor:start;font-family:sans-serif;font-style:normal;font-weight:normal" x="-105" y="1608.49">
    <tspan x="-105" y="1608.49">if Some(Opt&lt;SyntaxExtension&gt;)</tspan>
  </text>
  <text font-size="12.8" style="fill: #000000;text-anchor:start;font-family:sans-serif;font-style:normal;font-weight:normal" x="-80" y="1633.49">
    <tspan x="-80" y="1633.49">if Some(SyntaxExtension)</tspan>
  </text>
  <g>
    <rect style="fill: #ffffff" x="-55" y="1643.49" width="218.35" height="38"/>
    <rect style="fill: none; fill-opacity:0; stroke-width: 1.9812; stroke: #ff0000" x="-55" y="1643.49" width="218.35" height="38"/>
    <text font-size="12.8" style="fill: #ff0000;text-anchor:middle;font-family:sans-serif;font-style:normal;font-weight:normal" x="54.175" y="1666.39">
      <tspan x="54.175" y="1666.39">MacroExpander::expand_invoc</tspan>
    </text>
  </g>
  <text font-size="12.8" style="fill: #000000;text-anchor:start;font-family:sans-serif;font-style:normal;font-weight:normal" x="-80" y="1703.49">
    <tspan x="-80" y="1703.49">else Some(None)</tspan>
  </text>
  <text font-size="12.8" style="fill: #000000;text-anchor:start;font-family:sans-serif;font-style:normal;font-weight:normal" x="-55" y="1723.49">
    <tspan x="-55" y="1723.49">assert!(InvocationKind::Attr)</tspan>
  </text>
  <g>
    <rect style="fill: #ffffff" x="-55" y="1733.49" width="287.9" height="38"/>
    <rect style="fill: none; fill-opacity:0; stroke-width: 2; stroke: #000000" x="-55" y="1733.49" width="287.9" height="38"/>
    <text font-size="12.8" style="fill: #000000;text-anchor:middle;font-family:sans-serif;font-style:normal;font-weight:normal" x="88.95" y="1756.39">
      <tspan x="88.95" y="1756.39">ExpansionKind::expect_from_annotatable</tspan>
    </text>
  </g>
  <text font-size="12.8" style="fill: #000000;text-anchor:start;font-family:sans-serif;font-style:normal;font-weight:normal" x="-105" y="1788.49">
    <tspan x="-105" y="1788.49">else None</tspan>
  </text>
  <text font-size="12.8" style="fill: #000000;text-anchor:start;font-family:sans-serif;font-style:normal;font-weight:normal" x="-80" y="1808.49">
    <tspan x="-80" y="1808.49">assert!(Determinacy::Determined)</tspan>
  </text>
  <g>
    <rect style="fill: #ffffff" x="-80" y="1818.49" width="173.5" height="38"/>
    <rect style="fill: none; fill-opacity:0; stroke-width: 2; stroke: #000000" x="-80" y="1818.49" width="173.5" height="38"/>
    <text font-size="12.8" style="fill: #000000;text-anchor:middle;font-family:sans-serif;font-style:normal;font-weight:normal" x="6.75" y="1841.39">
      <tspan x="6.75" y="1841.39">ExpansionKind::dummy</tspan>
    </text>
  </g>
  <g>
    <polyline style="fill: none; fill-opacity:0; stroke-width: 2; stroke: #000000" points="-171.968,1479.84 -180,1479.84 -180,1752.49 -65.7423,1752.49 "/>
    <polygon style="fill: #000000" points="-58.2423,1752.49 -68.2423,1757.49 -65.7423,1752.49 -68.2423,1747.49 "/>
    <polygon style="fill: none; fill-opacity:0; stroke-width: 2; stroke: #000000" points="-58.2423,1752.49 -68.2423,1757.49 -65.7423,1752.49 -68.2423,1747.49 "/>
  </g>
  <g>
    <polyline style="fill: none; fill-opacity:0; stroke-width: 2; stroke: #000000" points="-171.968,1479.84 -180,1479.84 -180,1837.49 -89.7361,1837.49 "/>
    <polygon style="fill: #000000" points="-82.2361,1837.49 -92.2361,1842.49 -89.7361,1837.49 -92.2361,1832.49 "/>
    <polygon style="fill: none; fill-opacity:0; stroke-width: 2; stroke: #000000" points="-82.2361,1837.49 -92.2361,1842.49 -89.7361,1837.49 -92.2361,1832.49 "/>
  </g>
  <g>
    <ellipse style="fill: #ffffff" cx="331.37" cy="1660.68" rx="51.3699" ry="25.6849"/>
    <ellipse style="fill: none; fill-opacity:0; stroke-width: 2; stroke: #000000" cx="331.37" cy="1660.68" rx="51.3699" ry="25.6849"/>
    <text font-size="12.8" style="fill: #000000;text-anchor:middle;font-family:sans-serif;font-style:normal;font-weight:normal" x="331.37" y="1664.58">
      <tspan x="331.37" y="1664.58">Expansion</tspan>
    </text>
  </g>
  <g>
    <ellipse style="fill: #ffffff" cx="331.37" cy="1750.18" rx="51.3699" ry="25.6849"/>
    <ellipse style="fill: none; fill-opacity:0; stroke-width: 2; stroke: #000000" cx="331.37" cy="1750.18" rx="51.3699" ry="25.6849"/>
    <text font-size="12.8" style="fill: #000000;text-anchor:middle;font-family:sans-serif;font-style:normal;font-weight:normal" x="331.37" y="1754.08">
      <tspan x="331.37" y="1754.08">Expansion</tspan>
    </text>
  </g>
  <g>
    <ellipse style="fill: #ffffff" cx="331.37" cy="1835.18" rx="51.3699" ry="25.6849"/>
    <ellipse style="fill: none; fill-opacity:0; stroke-width: 2; stroke: #000000" cx="331.37" cy="1835.18" rx="51.3699" ry="25.6849"/>
    <text font-size="12.8" style="fill: #000000;text-anchor:middle;font-family:sans-serif;font-style:normal;font-weight:normal" x="331.37" y="1839.08">
      <tspan x="331.37" y="1839.08">Expansion</tspan>
    </text>
  </g>
  <g>
    <line style="fill: none; fill-opacity:0; stroke-width: 2; stroke: #000000" x1="164.214" y1="1661.77" x2="269.322" y2="1661.09"/>
    <polygon style="fill: #000000" points="276.821,1661.04 266.854,1666.11 269.322,1661.09 266.789,1656.11 "/>
    <polygon style="fill: none; fill-opacity:0; stroke-width: 2; stroke: #000000" points="276.821,1661.04 266.854,1666.11 269.322,1661.09 266.789,1656.11 "/>
  </g>
  <g>
    <line style="fill: none; fill-opacity:0; stroke-width: 2; stroke: #000000" x1="233.9" y1="1751.11" x2="269.286" y2="1750.77"/>
    <polygon style="fill: #000000" points="276.785,1750.7 266.833,1755.79 269.286,1750.77 266.738,1745.79 "/>
    <polygon style="fill: none; fill-opacity:0; stroke-width: 2; stroke: #000000" points="276.785,1750.7 266.833,1755.79 269.286,1750.77 266.738,1745.79 "/>
  </g>
  <g>
    <line style="fill: none; fill-opacity:0; stroke-width: 2; stroke: #000000" x1="94.4929" y1="1836.87" x2="269.278" y2="1835.62"/>
    <polygon style="fill: #000000" points="276.777,1835.57 266.813,1840.64 269.278,1835.62 266.742,1830.64 "/>
    <polygon style="fill: none; fill-opacity:0; stroke-width: 2; stroke: #000000" points="276.777,1835.57 266.813,1840.64 269.278,1835.62 266.742,1830.64 "/>
  </g>
  <g>
    <line style="fill: none; fill-opacity:0; stroke-width: 2; stroke: #000000" x1="66.1074" y1="1536.2" x2="66.4141" y2="1578.76"/>
    <polygon style="fill: #000000" points="66.4681,1586.26 61.3962,1576.3 66.4141,1578.76 71.3959,1576.23 "/>
    <polygon style="fill: none; fill-opacity:0; stroke-width: 2; stroke: #000000" points="66.4681,1586.26 61.3962,1576.3 66.4141,1578.76 71.3959,1576.23 "/>
  </g>
  <g>
    <polyline style="fill: none; fill-opacity:0; stroke-width: 2; stroke: #000000" points="383.734,1660.68 405,1660.68 405,980 355.575,980 "/>
    <polygon style="fill: #000000" points="348.075,980 358.075,975 355.575,980 358.075,985 "/>
    <polygon style="fill: none; fill-opacity:0; stroke-width: 2; stroke: #000000" points="348.075,980 358.075,975 355.575,980 358.075,985 "/>
  </g>
  <g>
    <polyline style="fill: none; fill-opacity:0; stroke-width: 2; stroke: #000000" points="383.745,1750.18 420,1750.18 420,980 355.736,980 "/>
    <polygon style="fill: #000000" points="348.236,980 358.236,975 355.736,980 358.236,985 "/>
    <polygon style="fill: none; fill-opacity:0; stroke-width: 2; stroke: #000000" points="348.236,980 358.236,975 355.736,980 358.236,985 "/>
  </g>
  <g>
    <polyline style="fill: none; fill-opacity:0; stroke-width: 2; stroke: #000000" points="383.716,1835.18 435,1835.18 435,980 355.743,980 "/>
    <polygon style="fill: #000000" points="348.243,980 358.243,975 355.743,980 358.243,985 "/>
    <polygon style="fill: none; fill-opacity:0; stroke-width: 2; stroke: #000000" points="348.243,980 358.243,975 355.743,980 358.243,985 "/>
  </g>
  <g>
    <ellipse style="fill: #ffffff" cx="67.1001" cy="1978.55" rx="107.1" ry="53.55"/>
    <ellipse style="fill: none; fill-opacity:0; stroke-width: 2; stroke: #000000" cx="67.1001" cy="1978.55" rx="107.1" ry="53.55"/>
    <text font-size="12.8" style="fill: #000000;text-anchor:middle;font-family:sans-serif;font-style:normal;font-weight:normal" x="67.1001" y="1982.45">
      <tspan x="67.1001" y="1982.45">Vec&lt;Vec&lt;(Mark,Expansion)&gt;</tspan>
    </text>
  </g>
  <g>
    <line style="fill: none; fill-opacity:0; stroke-width: 2; stroke: #000000" x1="67.2736" y1="1870.47" x2="67.2033" y2="1914.26"/>
    <polygon style="fill: #000000" points="67.1913,1921.76 62.2073,1911.76 67.2033,1914.26 72.2073,1911.77 "/>
    <polygon style="fill: none; fill-opacity:0; stroke-width: 2; stroke: #000000" points="67.1913,1921.76 62.2073,1911.76 67.2033,1914.26 72.2073,1911.77 "/>
  </g>
  <g>
    <rect style="fill: #ffffff" x="-45" y="2081" width="220" height="84"/>
    <rect style="fill: none; fill-opacity:0; stroke-width: 2; stroke: #000000" x="-45" y="2081" width="220" height="84"/>
    <text font-size="12.8" style="fill: #000000;text-anchor:middle;font-family:sans-serif;font-style:normal;font-weight:normal" x="65" y="2126.9">
      <tspan x="65" y="2126.9"></tspan>
    </text>
  </g>
  <text font-size="12.8" style="fill: #000000;text-anchor:start;font-family:sans-serif;font-style:normal;font-weight:normal" x="-35" y="2100">
    <tspan x="-35" y="2100">while (Mark,Expansion)</tspan>
  </text>
  <g>
    <rect style="fill: #ffffff" x="-30" y="2110" width="190.5" height="38"/>
    <rect style="fill: none; fill-opacity:0; stroke-width: 2; stroke: #000000" x="-30" y="2110" width="190.5" height="38"/>
    <text font-size="12.8" style="fill: #000000;text-anchor:middle;font-family:sans-serif;font-style:normal;font-weight:normal" x="65.25" y="2132.9">
      <tspan x="65.25" y="2132.9">PlaceholderExpander::add</tspan>
    </text>
  </g>
  <g>
    <line style="fill: none; fill-opacity:0; stroke-width: 2; stroke: #000000" x1="66.3072" y1="2033.09" x2="65.7667" y2="2070.27"/>
    <polygon style="fill: #000000" points="65.6576,2077.77 60.8035,2067.69 65.7667,2070.27 70.8025,2067.84 "/>
    <polygon style="fill: none; fill-opacity:0; stroke-width: 2; stroke: #000000" points="65.6576,2077.77 60.8035,2067.69 65.7667,2070.27 70.8025,2067.84 "/>
  </g>
  <g>
    <ellipse style="fill: #ffffff" cx="67.5" cy="2250.98" rx="82.5" ry="40.9808"/>
    <ellipse style="fill: none; fill-opacity:0; stroke-width: 2; stroke: #000000" cx="67.5" cy="2250.98" rx="82.5" ry="40.9808"/>
    <text font-size="12.8" style="fill: #000000;text-anchor:middle;font-family:sans-serif;font-style:normal;font-weight:normal" x="67.5" y="2254.88">
      <tspan x="67.5" y="2254.88">PlaceholderExpander</tspan>
    </text>
  </g>
  <g>
    <line style="fill: none; fill-opacity:0; stroke-width: 2; stroke: #000000" x1="65.84" y1="2166" x2="66.5091" y2="2200.25"/>
    <polygon style="fill: #000000" points="66.6555,2207.75 61.4612,2197.85 66.5091,2200.25 71.4593,2197.66 "/>
    <polygon style="fill: none; fill-opacity:0; stroke-width: 2; stroke: #000000" points="66.6555,2207.75 61.4612,2197.85 66.5091,2200.25 71.4593,2197.66 "/>
  </g>
  <g>
    <rect style="fill: #ffffff" x="-110" y="2335" width="350" height="38"/>
    <rect style="fill: none; fill-opacity:0; stroke-width: 2; stroke: #000000" x="-110" y="2335" width="350" height="38"/>
    <text font-size="12.8" style="fill: #000000;text-anchor:middle;font-family:sans-serif;font-style:normal;font-weight:normal" x="65" y="2357.9">
      <tspan x="65" y="2357.9">Expansion::fold_with (PlaceholderExpander:Folder)</tspan>
    </text>
  </g>
  <g>
    <line style="fill: none; fill-opacity:0; stroke-width: 2; stroke: #000000" x1="66.4812" y1="2292.96" x2="65.7216" y2="2324.27"/>
    <polygon style="fill: #000000" points="65.5396,2331.76 60.7837,2321.64 65.7216,2324.27 70.7808,2321.89 "/>
    <polygon style="fill: none; fill-opacity:0; stroke-width: 2; stroke: #000000" points="65.5396,2331.76 60.7837,2321.64 65.7216,2324.27 70.7808,2321.89 "/>
  </g>
  <g>
    <ellipse style="fill: #ffffff" cx="66.3699" cy="2445.68" rx="51.3699" ry="25.6849"/>
    <ellipse style="fill: none; fill-opacity:0; stroke-width: 2; stroke: #000000" cx="66.3699" cy="2445.68" rx="51.3699" ry="25.6849"/>
    <text font-size="12.8" style="fill: #000000;text-anchor:middle;font-family:sans-serif;font-style:normal;font-weight:normal" x="66.3699" y="2449.58">
      <tspan x="66.3699" y="2449.58">Expansion</tspan>
    </text>
  </g>
  <g>
    <line style="fill: none; fill-opacity:0; stroke-width: 2; stroke: #000000" x1="65.2987" y1="2373.99" x2="65.8257" y2="2409.26"/>
    <polygon style="fill: #000000" points="65.9377,2416.76 60.7889,2406.84 65.8257,2409.26 70.7878,2406.69 "/>
    <polygon style="fill: none; fill-opacity:0; stroke-width: 2; stroke: #000000" points="65.9377,2416.76 60.7889,2406.84 65.8257,2409.26 70.7878,2406.69 "/>
  </g>
  <g>
    <rect style="fill: #ffffff" x="-20" y="2515" width="173.65" height="38"/>
    <rect style="fill: none; fill-opacity:0; stroke-width: 2; stroke: #000000" x="-20" y="2515" width="173.65" height="38"/>
    <text font-size="12.8" style="fill: #000000;text-anchor:middle;font-family:sans-serif;font-style:normal;font-weight:normal" x="66.825" y="2537.9">
      <tspan x="66.825" y="2537.9">Expansion::make_items</tspan>
    </text>
  </g>
  <g>
    <line style="fill: none; fill-opacity:0; stroke-width: 2; stroke: #000000" x1="66.5073" y1="2472.36" x2="66.6735" y2="2504.6"/>
    <polygon style="fill: #000000" points="66.7121,2512.1 61.6607,2502.13 66.6735,2504.6 71.6605,2502.07 "/>
    <polygon style="fill: none; fill-opacity:0; stroke-width: 2; stroke: #000000" points="66.7121,2512.1 61.6607,2502.13 66.6735,2504.6 71.6605,2502.07 "/>
  </g>
  <g>
    <ellipse style="fill: #ffffff" cx="65.2084" cy="2632.6" rx="65.2084" ry="32.6042"/>
    <ellipse style="fill: none; fill-opacity:0; stroke-width: 2; stroke: #000000" cx="65.2084" cy="2632.6" rx="65.2084" ry="32.6042"/>
    <text font-size="12.8" style="fill: #000000;text-anchor:middle;font-family:sans-serif;font-style:normal;font-weight:normal" x="65.2084" y="2628.5">
      <tspan x="65.2084" y="2628.5">(expanded)</tspan>
      <tspan x="65.2084" y="2644.5">ast::Crate</tspan>
    </text>
  </g>
  <g>
    <line style="fill: none; fill-opacity:0; stroke-width: 2; stroke: #000000" x1="66.4972" y1="2553.99" x2="65.9182" y2="2589.31"/>
    <polygon style="fill: #000000" points="65.7952,2596.81 60.9598,2586.73 65.9182,2589.31 70.9585,2586.89 "/>
    <polygon style="fill: none; fill-opacity:0; stroke-width: 2; stroke: #000000" points="65.7952,2596.81 60.9598,2586.73 65.9182,2589.31 70.9585,2586.89 "/>
  </g>
  <g>
    <rect style="fill: #ffffff" x="-80" y="2695" width="290" height="38"/>
    <rect style="fill: none; fill-opacity:0; stroke-width: 2; stroke: #000000" x="-80" y="2695" width="290" height="38"/>
    <text font-size="12.8" style="fill: #000000;text-anchor:middle;font-family:sans-serif;font-style:normal;font-weight:normal" x="65" y="2717.9">
      <tspan x="65" y="2717.9">rustc_passes::ast_validation::check_crate</tspan>
    </text>
  </g>
  <g>
    <line style="fill: none; fill-opacity:0; stroke-width: 2; stroke: #000000" x1="65.1224" y1="2666.19" x2="65.0761" y2="2684.26"/>
    <polygon style="fill: #000000" points="65.0569,2691.76 60.0825,2681.75 65.0761,2684.26 70.0825,2681.78 "/>
    <polygon style="fill: none; fill-opacity:0; stroke-width: 2; stroke: #000000" points="65.0569,2691.76 60.0825,2681.75 65.0761,2684.26 70.0825,2681.78 "/>
  </g>
  <g>
    <rect style="fill: #ffffff" x="-240" y="2765" width="615" height="185"/>
    <rect style="fill: none; fill-opacity:0; stroke-width: 2; stroke: #000000" x="-240" y="2765" width="615" height="185"/>
    <text font-size="12.8" style="fill: #000000;text-anchor:middle;font-family:sans-serif;font-style:normal;font-weight:normal" x="67.5" y="2861.4">
      <tspan x="67.5" y="2861.4"></tspan>
    </text>
  </g>
  <text font-size="12.8" style="fill: #000000;text-anchor:start;font-family:sans-serif;font-style:normal;font-weight:normal" x="67.5" y="2857.5">
    <tspan x="67.5" y="2857.5"></tspan>
  </text>
  <text font-size="12.8" style="fill: #000000;text-anchor:start;font-family:sans-serif;font-style:normal;font-weight:normal" x="-230" y="2785">
    <tspan x="-230" y="2785">Resolver::resolve_crate</tspan>
  </text>
  <g>
    <line style="fill: none; fill-opacity:0; stroke-width: 2; stroke: #000000" x1="65.3482" y1="2733.99" x2="65.7017" y2="2754.28"/>
    <polygon style="fill: #000000" points="65.8323,2761.78 60.6589,2751.86 65.7017,2754.28 70.6574,2751.69 "/>
    <polygon style="fill: none; fill-opacity:0; stroke-width: 2; stroke: #000000" points="65.8323,2761.78 60.6589,2751.86 65.7017,2754.28 70.6574,2751.69 "/>
  </g>
  <g>
    <rect style="fill: #ffffff" x="-225" y="2795" width="361.2" height="38"/>
    <rect style="fill: none; fill-opacity:0; stroke-width: 2; stroke: #000000" x="-225" y="2795" width="361.2" height="38"/>
    <text font-size="12.8" style="fill: #000000;text-anchor:middle;font-family:sans-serif;font-style:normal;font-weight:normal" x="-44.4" y="2817.9">
      <tspan x="-44.4" y="2817.9">Resolver::finalize_current_module_macro_resolutions</tspan>
    </text>
  </g>
  <g>
    <rect style="fill: #ffffff" x="-225" y="2850" width="395" height="85"/>
    <rect style="fill: none; fill-opacity:0; stroke-width: 2; stroke: #000000" x="-225" y="2850" width="395" height="85"/>
    <text font-size="12.8" style="fill: #000000;text-anchor:middle;font-family:sans-serif;font-style:normal;font-weight:normal" x="-27.5" y="2896.4">
      <tspan x="-27.5" y="2896.4"></tspan>
    </text>
  </g>
  <text font-size="12.8" style="fill: #000000;text-anchor:start;font-family:sans-serif;font-style:normal;font-weight:normal" x="-27.5" y="2892.5">
    <tspan x="-27.5" y="2892.5"></tspan>
  </text>
  <text font-size="12.8" style="fill: #000000;text-anchor:start;font-family:sans-serif;font-style:normal;font-weight:normal" x="-215" y="2870">
    <tspan x="-215" y="2870">syntax::visit::walk_crate</tspan>
  </text>
  <g>
    <rect style="fill: #ffffff" x="-210" y="2880" width="201.25" height="38"/>
    <rect style="fill: none; fill-opacity:0; stroke-width: 2; stroke: #000000" x="-210" y="2880" width="201.25" height="38"/>
    <text font-size="12.8" style="fill: #000000;text-anchor:middle;font-family:sans-serif;font-style:normal;font-weight:normal" x="-109.375" y="2902.9">
      <tspan x="-109.375" y="2902.9">(Resolver:Visitor)::visit_mod</tspan>
    </text>
  </g>
  <g>
    <ellipse style="fill: #ffffff" cx="-87.8483" cy="3018.58" rx="47.1517" ry="23.5759"/>
    <ellipse style="fill: none; fill-opacity:0; stroke-width: 2; stroke: #000000" cx="-87.8483" cy="3018.58" rx="47.1517" ry="23.5759"/>
    <text font-size="12.8" style="fill: #000000;text-anchor:middle;font-family:sans-serif;font-style:normal;font-weight:normal" x="-87.8483" y="3022.48">
      <tspan x="-87.8483" y="3022.48">Resolver</tspan>
    </text>
  </g>
  <g>
    <ellipse style="fill: #ffffff" cx="70.2084" cy="3022.6" rx="65.2084" ry="32.6042"/>
    <ellipse style="fill: none; fill-opacity:0; stroke-width: 2; stroke: #000000" cx="70.2084" cy="3022.6" rx="65.2084" ry="32.6042"/>
    <text font-size="12.8" style="fill: #000000;text-anchor:middle;font-family:sans-serif;font-style:normal;font-weight:normal" x="70.2084" y="3018.5">
      <tspan x="70.2084" y="3018.5">(expanded)</tspan>
      <tspan x="70.2084" y="3034.5">ast::Crate</tspan>
    </text>
  </g>
  <g>
    <line style="fill: none; fill-opacity:0; stroke-width: 2; stroke: #000000" x1="-22.6521" y1="2950.98" x2="-59.9169" y2="2989.61"/>
    <polygon style="fill: #000000" points="-65.1234,2995.01 -61.7804,2984.34 -59.9169,2989.61 -54.5825,2991.29 "/>
    <polygon style="fill: none; fill-opacity:0; stroke-width: 2; stroke: #000000" points="-65.1234,2995.01 -61.7804,2984.34 -59.9169,2989.61 -54.5825,2991.29 "/>
  </g>
  <g>
    <line style="fill: none; fill-opacity:0; stroke-width: 2; stroke: #000000" x1="69.0287" y1="2950.69" x2="69.4979" y2="2979.29"/>
    <polygon style="fill: #000000" points="69.6209,2986.79 64.4575,2976.87 69.4979,2979.29 74.4562,2976.71 "/>
    <polygon style="fill: none; fill-opacity:0; stroke-width: 2; stroke: #000000" points="69.6209,2986.79 64.4575,2976.87 69.4979,2979.29 74.4562,2976.71 "/>
  </g>
  <g>
    <rect style="fill: #ffffff" x="-45" y="3095" width="230.8" height="38"/>
    <rect style="fill: none; fill-opacity:0; stroke-width: 2; stroke: #000000" x="-45" y="3095" width="230.8" height="38"/>
    <text font-size="12.8" style="fill: #000000;text-anchor:middle;font-family:sans-serif;font-style:normal;font-weight:normal" x="70.4" y="3117.9">
      <tspan x="70.4" y="3117.9">rustc::hir::lowering::lower_crate</tspan>
    </text>
  </g>
  <g>
    <line style="fill: none; fill-opacity:0; stroke-width: 2; stroke: #000000" x1="-56.8921" y1="3037.24" x2="28.8945" y2="3088.97"/>
    <polygon style="fill: #000000" points="35.3171,3092.84 24.1716,3091.96 28.8945,3088.97 29.3355,3083.4 "/>
    <polygon style="fill: none; fill-opacity:0; stroke-width: 2; stroke: #000000" points="35.3171,3092.84 24.1716,3091.96 28.8945,3088.97 29.3355,3083.4 "/>
  </g>
  <g>
    <line style="fill: none; fill-opacity:0; stroke-width: 2; stroke: #000000" x1="70.2788" y1="3056.21" x2="70.3376" y2="3084.26"/>
    <polygon style="fill: #000000" points="70.3534,3091.76 65.3324,3081.77 70.3376,3084.26 75.3324,3081.75 "/>
    <polygon style="fill: none; fill-opacity:0; stroke-width: 2; stroke: #000000" points="70.3534,3091.76 65.3324,3081.77 70.3376,3084.26 75.3324,3081.75 "/>
  </g>
  <g>
    <ellipse style="fill: #ffffff" cx="70" cy="3199.57" rx="50" ry="24.573"/>
    <ellipse style="fill: none; fill-opacity:0; stroke-width: 2; stroke: #000000" cx="70" cy="3199.57" rx="50" ry="24.573"/>
    <text font-size="12.8" style="fill: #000000;text-anchor:middle;font-family:sans-serif;font-style:normal;font-weight:normal" x="70" y="3203.47">
      <tspan x="70" y="3203.47">hir::Crate</tspan>
    </text>
  </g>
  <g>
    <line style="fill: none; fill-opacity:0; stroke-width: 2; stroke: #000000" x1="70.3065" y1="3133.99" x2="70.1651" y2="3164.26"/>
    <polygon style="fill: #000000" points="70.13,3171.75 65.1768,3161.73 70.1651,3164.26 75.1767,3161.78 "/>
    <polygon style="fill: none; fill-opacity:0; stroke-width: 2; stroke: #000000" points="70.13,3171.75 65.1768,3161.73 70.1651,3164.26 75.1767,3161.78 "/>
  </g>
  <line style="fill: none; fill-opacity:0; stroke-width: 2; stroke-dasharray: 4; stroke: #000000" x1="70" y1="3225.15" x2="70" y2="3280"/>
  <g>
    <path style="fill: #ffffff" d="M 46.7375 3340 L 213.687,3340 C 236.738,3340 255.425,3362.83 255.425,3391 C 255.425,3419.17 236.738,3442 213.687,3442 L 46.7375,3442 C 23.6865,3442 5,3419.17 5,3391 C 5,3362.83 23.6865,3340 46.7375,3340z"/>
    <path style="fill: none; fill-opacity:0; stroke-width: 1.9812; stroke: #000000" d="M 46.7375 3340 L 213.687,3340 C 236.738,3340 255.425,3362.83 255.425,3391 C 255.425,3419.17 236.738,3442 213.687,3442 L 46.7375,3442 C 23.6865,3442 5,3419.17 5,3391 C 5,3362.83 23.6865,3340 46.7375,3340"/>
    <text font-size="12.8" style="fill: #000000;text-anchor:start;font-family:sans-serif;font-style:normal;font-weight:normal" x="48.7375" y="3355">
      <tspan x="48.7375" y="3355">ExpansionResult {</tspan>
      <tspan x="48.7375" y="3371">    ast::Crate (expanded),</tspan>
      <tspan x="48.7375" y="3387">    ty::Resolutions,</tspan>
      <tspan x="48.7375" y="3403">    ty::CrateAnalysis,</tspan>
      <tspan x="48.7375" y="3419">    hir::map::Definitions,</tspan>
      <tspan x="48.7375" y="3435">    hir::map::Forest }</tspan>
    </text>
  </g>
  <g>
    <line style="fill: none; fill-opacity:0; stroke-width: 2; stroke: #000000" x1="130.066" y1="3305.99" x2="130.106" y2="3329.27"/>
    <polygon style="fill: #000000" points="130.119,3336.77 125.102,3326.78 130.106,3329.27 135.102,3326.77 "/>
    <polygon style="fill: none; fill-opacity:0; stroke-width: 2; stroke: #000000" points="130.119,3336.77 125.102,3326.78 130.106,3329.27 135.102,3326.77 "/>
  </g>
  <g>
    <polyline style="fill: none; fill-opacity:0; stroke-width: 2; stroke: #000000" points="-171.968,1479.84 -180,1479.84 -180,1662.49 -65.7022,1662.49 "/>
    <polygon style="fill: #000000" points="-58.2022,1662.49 -68.2022,1667.49 -65.7022,1662.49 -68.2022,1657.49 "/>
    <polygon style="fill: none; fill-opacity:0; stroke-width: 2; stroke: #000000" points="-58.2022,1662.49 -68.2022,1667.49 -65.7022,1662.49 -68.2022,1657.49 "/>
  </g>
  <line style="fill: none; fill-opacity:0; stroke-width: 2; stroke-dasharray: 4; stroke: #000000" x1="109.815" y1="9.00767" x2="110" y2="-35"/>
  <line style="fill: none; fill-opacity:0; stroke-width: 2; stroke-dasharray: 4; stroke: #000000" x1="130.101" y1="3443" x2="130" y2="3490"/>
</svg>
